<svg xmlns="http://www.w3.org/2000/svg" viewBox="0 0 1920 1080"><defs><style>.cls-1{fill:#ffc8c6;}.cls-2{fill:#faa4a0;}.cls-3{fill:#844d03;}.cls-4{fill:#ffc8ce;}.cls-5{fill:#d8b787;}.cls-6{fill:#7d3342;}.cls-7{fill:#f9d9a6;}.cls-8{fill:#f3a7ac;}.cls-9{fill:#e11d4a;}.cls-10,.cls-16{fill:#f57385;}.cls-11,.cls-14,.cls-19{fill:#ea4546;}.cls-12{fill:#fce2e4;}.cls-13{font-size:21.31px;fill:#ffeef2;}.cls-13,.cls-14,.cls-16,.cls-19{font-family:OpenSans-Bold, Open Sans;font-weight:700;}.cls-14{font-size:48.74px;}.cls-15,.cls-41{fill:none;}.cls-15{stroke:#f57385;stroke-miterlimit:10;stroke-width:3.2px;}.cls-16{font-size:34.1px;}.cls-17{fill:#edf4ff;}.cls-18{fill:#fbdede;}.cls-19{font-size:50.01px;}.cls-20{fill:#703e03;}.cls-21{fill:#1fd0ff;}.cls-22{fill:#ba5007;}.cls-23{fill:#f49146;}.cls-24{fill:#f6c01c;}.cls-25{fill:#936748;}.cls-26{fill:#fff;}.cls-27{fill:#d88635;}.cls-28{fill:#c46c0c;}.cls-29{fill:#ed993e;}.cls-30{fill:#d37809;}.cls-31{fill:#ffb677;}.cls-32{fill:#c6b3a1;}.cls-33{fill:#ffb9a4;}.cls-34{fill:#ffc9b6;}.cls-35{fill:#32312f;}.cls-36{fill:#d5c5b4;}.cls-37{fill:#724004;}.cls-38{fill:#9ca59e;}.cls-39{fill:#874315;}.cls-40{fill:#ccab7f;}.cls-41{stroke:#f9d9a6;stroke-linejoin:round;stroke-width:2.63px;}</style></defs><g id="Ovulation"><rect class="cls-1" width="1920" height="1080"/><path class="cls-2" d="M390.8,967.37C379.53,971,374.3,978.85,362,988.12s-6.19,15.33.78,12,13.33-11.12,21.1-18a67.87,67.87,0,0,1,16.71-10.68Z"/><path class="cls-2" d="M406.4,975.11s-15.68,13-22.48,18.89-17.55,13.79-11,19.11c3.93,3.18,14.61-7.34,20.05-12.06s14.34-11.5,14.34-11.5Z"/><path class="cls-2" d="M387.3,947.65s-18.15,9.24-26.08,13.5-20.14,9.59-14.89,16.23c3.14,4,15.87-4,22.21-7.36s16.51-8.08,16.51-8.08Z"/><path class="cls-2" d="M416.39,993.26c-5.05,2.59-17.16,16.74-22,25.24s2.16,12.52,6.36,12.26,9-12.48,13.8-18.71,11.28-13.3,11.28-13.3Z"/><path class="cls-2" d="M450.65,1004.22c-7.17,9.4-7,18.84-11.79,33.5s3.7,16.12,7.51,9.4,4.58-16.74,7-26.87a67.65,67.65,0,0,1,7.6-18.32Z"/><path class="cls-2" d="M468.15,1005.81s-5.43,19.63-7.64,28.35-6.52,21.34,1.92,21.95c5.05.36,7.79-14.38,9.56-21.36s5.19-17.64,5.19-17.64Z"/><path class="cls-2" d="M436.78,994.2s-7.38,19.56-13.68,26c-11,11.17-15.55,19.37-2.94,21.83,5,1,10.76-12.31,14-18.73s8.93-16.07,8.93-16.07Z"/><path class="cls-2" d="M493.05,1017.15c-4.06,4-11.46,21.06-13.54,30.6s5.76,11.32,9.69,9.83,4.93-14.58,7.67-21.94,6.86-16,6.86-16Z"/><path class="cls-2" d="M533.52,1023.45c-5.49,10.48-3.7,19.75-6,35s6.36,15.26,9,8,1.69-17.27,2.37-27.66a67.52,67.52,0,0,1,4.41-19.34Z"/><path class="cls-2" d="M551,1022.07s-2,20.27-2.77,29.24-2.82,22.13,5.59,21.31c5-.5,5.27-15.49,5.84-22.66s2.14-18.26,2.14-18.26Z"/><path class="cls-2" d="M518.16,1015.91s-6.45,19.32-9.11,27.91-7.62,21,.78,22c5,.62,8.53-14,10.66-20.83s6.1-17.35,6.1-17.35Z"/><path class="cls-2" d="M570.89,1028c-1.78,5.39-.48,24,2.06,33.4s10.33,7.4,13.13,4.27-2.34-15.21-3.29-23-1.29-17.4-1.29-17.4Z"/><path class="cls-2" d="M379.66,943.67c-7,3.33-20.35,8.52-27.68,9.48s-13-1.55-14.06-6.51,1.79-5.63,9.68-5.9,26.77-7.51,26.77-7.51Z"/><path class="cls-2" d="M377.36,923.2c-.72.06-13.63.4-22.9,1.5s-14.51-1.91-16.41-5.38,2-9.48,7.36-8.39a46.23,46.23,0,0,0,17.52.53c6.16-1.12,18,.38,18,.38Z"/><path class="cls-2" d="M383.26,902s-9.55-1.53-18.52-3.1-17.43-2.69-18.44-7.18.52-7.67,6.26-6.87,11.09,3.82,16.68,4.17,17.52,2.25,17.52,2.25Z"/><path class="cls-2" d="M391.9,885.6s-15.32-5.88-23.43-8.29c-7.93-2.35-10.34-5-8.37-9,3.17-6.44,6.6-1.63,14.66.68,6.63,1.89,23.05,8.11,23.05,8.11Z"/><path class="cls-2" d="M404,872.35s-7.44-3.93-15.44-8.92-11.36-5.14-13.38-10.51,3.71-9.11,7.21-6.95,5.13,5.17,10.56,7.7a125.67,125.67,0,0,1,19.22,11.68Z"/><path class="cls-2" d="M418,860.41A100.44,100.44,0,0,0,405.38,850c-6.51-4.37-7.55-5.5-11.15-9.34s-.28-7.88,3.36-7.16,7.55,5.49,13,8.72,15.46,12.89,15.46,12.89Z"/><path class="cls-2" d="M431.27,850.19A107.13,107.13,0,0,0,419,838.78c-6.56-5.08-9.66-8.47-8.22-12.16s5.18-1.54,9.36,2,9,7.08,12.54,10.44,7.19,7.43,7.19,7.43Z"/><path class="cls-2" d="M445.27,844.41a91.39,91.39,0,0,0-9.91-12.21c-5.91-6.08-8.35-6.81-8.63-11.14s4.1-6.78,8.32-2.74,5.58,6.56,10.7,11.51a83.13,83.13,0,0,1,9.08,10.61Z"/><path class="cls-2" d="M595.49,1030.68c-.47.21.38,13.1,1.73,26.42s8.66,16.84,11.31,11.69-.89-11.83-.8-19.43,1-18.87,1-18.87Z"/><path class="cls-2" d="M800.06,941.23c11.64,2.11,17.86,9.22,31.29,16.8s8.13,14.39.79,12-14.66-9.28-23.28-15.14a68,68,0,0,0-18-8.41Z"/><path class="cls-2" d="M785.6,950.93s17.25,10.85,24.76,15.8,19.19,11.38,13.37,17.51c-3.49,3.66-15.45-5.37-21.46-9.33s-15.72-9.54-15.72-9.54Z"/><path class="cls-2" d="M801,921.21s19.2,6.79,27.62,10,21.22,6.89,16.88,14.15c-2.59,4.34-16.24-1.85-23-4.4S805,935.09,805,935.09Z"/><path class="cls-2" d="M778.06,970.23c5.35,1.91,19.2,14.35,25.08,22.15s-.52,12.7-4.71,13-10.56-11.2-16.12-16.74-12.93-11.72-12.93-11.72Z"/><path class="cls-2" d="M745.53,985.57c8.34,8.39,9.38,17.77,16.06,31.67s-1.56,16.47-6.21,10.3-6.73-16-10.44-25.72A67.84,67.84,0,0,0,735,984.65Z"/><path class="cls-2" d="M728.39,989.43s8,18.75,11.28,27.11,9.24,20.31,1,22c-5,1-9.6-13.24-12.26-19.92s-7.45-16.81-7.45-16.81Z"/><path class="cls-2" d="M758,973.82s11.87,16.55,17,24,13.47,17.78,5.76,21.26c-4.61,2.08-12.27-10.81-16.34-16.75s-11-14.76-11-14.76Z"/><path class="cls-2" d="M705.18,1003.93c4.55,3.4,14.11,19.38,17.42,28.56s-4.23,12-8.33,11-6.78-13.81-10.46-20.75-8.89-15-8.89-15Z"/><path class="cls-2" d="M665.88,1015.46c6.81,9.67,6.25,19.1,10.51,33.92s-4.31,16-7.87,9.11-3.93-16.9-6-27.12a67.66,67.66,0,0,0-6.89-18.59Z"/><path class="cls-2" d="M648.33,1016.38s4.68,19.82,6.56,28.62,5.69,21.58-2.76,21.86c-5,.17-7.24-14.67-8.74-21.7s-4.51-17.83-4.51-17.83Z"/><path class="cls-2" d="M680.12,1006s8.92,18.31,12.68,26.49,10.29,19.8,2.11,21.93c-4.9,1.27-10.28-12.72-13.29-19.26s-8.32-16.4-8.32-16.4Z"/><path class="cls-2" d="M629.42,1024.84c2.47,5.11,3.61,23.7,2.32,33.38s-9.27,8.68-12.46,6,.33-15.39.26-23.25-1-17.41-1-17.41Z"/><path class="cls-2" d="M808,916.27c7.34,2.39,21.28,5.79,28.68,5.78s12.7-3.23,13.08-8.28-2.5-5.35-10.36-4.59-27.52-3.95-27.52-3.95Z"/><path class="cls-2" d="M807.62,895.67c.71,0,13.56-1.38,22.9-1.5s14.13-3.79,15.56-7.47-3.23-9.14-8.39-7.36a46.13,46.13,0,0,1-17.3,2.81c-6.25-.31-17.79,2.73-17.79,2.73Z"/><path class="cls-2" d="M799,875.41s9.27-2.77,18-5.49,16.93-4.94,17.34-9.52-1.52-7.55-7.1-6-10.49,5.24-16,6.32-17.08,4.52-17.08,4.52Z"/><path class="cls-2" d="M788.29,860.3s14.42-7.84,22.14-11.28c7.56-3.37,9.6-6.34,7.12-10-4-6-6.75-.75-14.44,2.59-6.32,2.74-21.8,11.05-21.8,11.05Z"/><path class="cls-2" d="M774.59,848.74s6.87-4.87,14.14-10.86,10.59-6.58,11.9-12.17-4.87-8.55-8-6-4.42,5.8-9.48,9a126.19,126.19,0,0,0-17.52,14.09Z"/><path class="cls-2" d="M759.08,838.73a101.56,101.56,0,0,1,11.19-12c5.89-5.18,6.77-6.44,9.84-10.71s-.75-7.86-4.27-6.67-6.76,6.43-11.78,10.36-13.64,14.79-13.64,14.79Z"/><path class="cls-2" d="M744.63,830.33a106.17,106.17,0,0,1,10.66-12.91c5.84-5.9,8.47-9.66,6.56-13.13s-5.33-.85-9,3.22-8,8.19-11.07,12-6.17,8.31-6.17,8.31Z"/><path class="cls-2" d="M730,826.43a90.88,90.88,0,0,1,8.23-13.4c5.06-6.81,7.39-7.84,7.11-12.17s-5-6.18-8.62-1.63-4.67,7.23-9.1,12.8A82.6,82.6,0,0,0,720,823.74Z"/><path class="cls-2" d="M711.12,822.65s9.27-13.64,14.14-19.81,2.66-10.21-2.66-7.54-18.78,24-18.78,24Z"/><path class="cls-2" d="M692.9,818s9.62-7.73,15-14c7.14-8.24,3.2-11.91-3.87-10.06s-20.53,21.46-20.53,21.46Z"/><path class="cls-2" d="M673,815a76.35,76.35,0,0,1,6.82-12.13c4.35-6.29,6.55-7.47,5.85-11s-5.51-4.33-8.68-.09-3.92,6.58-7.75,11.77a70.13,70.13,0,0,0-6.39,10.66Z"/><path class="cls-2" d="M654,814.61s7.69-13.24,11.83-19.31,1.52-9.3-3.46-6.22-16,23.58-16,23.58Z"/><path class="cls-2" d="M635.52,813.4s8.47-9.11,13-16.16c6-9.31,1.54-12.51-5.21-9.71S625.87,812,625.87,812Z"/><path class="cls-2" d="M467.18,833s-10.55-6.41-16.73-11.9c-8.16-7.24-4.73-11.4,2.52-10.49s23.16,18.6,23.16,18.6Z"/><path class="cls-2" d="M487.9,827.94a77.4,77.4,0,0,0-8.35-11.14c-5.13-5.66-7.47-6.55-7.23-10.1s4.89-5,8.59-1.22,4.75,6,9.23,10.65a71.34,71.34,0,0,1,7.72,9.74Z"/><path class="cls-2" d="M509,823.1s-9.35-12.11-14.25-17.6-2.72-9,2.62-6.62,18.91,21.31,18.91,21.31Z"/><path class="cls-2" d="M527.15,819.49s-9.59-7.92-15-14.32c-7.11-8.45-3.15-12.21,3.91-10.31s20.46,22,20.46,22Z"/><path class="cls-2" d="M547.51,813.14s-7.68-10.13-9.39-17.9,6.77-10.11,10.09-3.2,9,20.46,9,20.46Z"/><path class="cls-2" d="M567.24,811.85s-5.36-12.5-5.78-20.68,8.65-8.65,11.09-.73,5.19,20.72,5.19,20.72Z"/><path class="cls-2" d="M587.4,808.68s-3.08-14.28-1.38-21.1,10.34-6.68,10.45,2.3.16,20.14.16,20.14Z"/><path class="cls-2" d="M606.84,809.25s-2.36-12.59,1-20.11,11-8,9.76,1.9a85.74,85.74,0,0,1-4.77,18.6Z"/><ellipse class="cls-3" cx="601.61" cy="921.22" rx="229.81" ry="116.28" transform="translate(-39.2 26.82) rotate(-2.47)"/><ellipse class="cls-4" cx="601.08" cy="913.12" rx="203.94" ry="103.19" transform="translate(-38.85 26.79) rotate(-2.47)"/><ellipse class="cls-2" cx="600.45" cy="903.41" rx="136.11" ry="68.87" transform="translate(-38.43 26.76) rotate(-2.47)"/><ellipse class="cls-5" cx="602.35" cy="607.19" rx="54.64" ry="31.54" transform="translate(-3.28 3.28) rotate(-0.31)"/><path class="cls-6" d="M547.72,607.19h0v0Z"/><path class="cls-6" d="M657,607.29l0-.1h0S657,607.25,657,607.29Z"/><path class="cls-3" d="M635,606.84c-17.9-10.34-47-10.29-65,.12-11.46,6.61-15.64,15.81-12.59,24.29l12.51,70.33h0c-.05,5.78,3.09,11.56,9.44,16,12.66,8.75,33.24,8.71,46-.1,6.34-4.39,9.53-10.13,9.58-15.86h0l12.6-70.84a18.89,18.89,0,0,1-.92,2.14C651,623.91,647.16,613.87,635,606.84Z"/><path class="cls-5" d="M640.87,629.42c-21.41,12.36-56,12.42-77.27.14-7.75-4.47-12.63-10-14.71-15.75l14.85,83.54h0c-.06,6.87,3.67,13.73,11.22,19,15,10.4,39.47,10.35,54.6-.12,7.53-5.22,11.32-12,11.39-18.84h0l15-84.15C653.87,619.14,648.86,624.81,640.87,629.42Z"/><path class="cls-7" d="M602,643.39c-15.33,0-29.8-3.48-40.74-9.79-11.74-6.78-18.21-16.1-18.21-26.22s6.55-19.59,18.45-26.46c11.09-6.41,25.72-9.94,41.19-9.94s29.8,3.48,40.74,9.8c11.74,6.78,18.21,16.08,18.21,26.21s-6.56,19.59-18.46,26.46C632.1,639.86,617.47,643.39,602,643.39Zm.69-63.09c-13.86,0-26.83,3.08-36.53,8.68-8.9,5.14-13.8,11.68-13.8,18.4s4.82,13.1,13.55,18.15c9.55,5.51,22.36,8.55,36.09,8.55s26.83-3.09,36.53-8.69c8.9-5.14,13.8-11.67,13.8-18.4s-4.82-13.1-13.56-18.15C629.24,583.33,616.42,580.3,602.7,580.3Z"/><polygon class="cls-3" points="588.4 617.58 592.82 340.48 597.36 618.66 588.4 617.58"/><polygon class="cls-3" points="562.33 378.17 567.09 411.45 592.79 452.86 592.79 442.66 570.34 411.45 562.33 378.17"/><polygon class="cls-3" points="593.43 409.2 593.43 415.12 617.38 400.31 624.01 366.58 614.72 398.01 593.43 409.2"/><path class="cls-8" d="M592.82,340.47s-16.87-13.91-9.09-20.89S592.82,340.47,592.82,340.47Z"/><path class="cls-7" d="M592.82,340.47s8.64-25.09,19.15-22S592.82,340.47,592.82,340.47Z"/><path class="cls-7" d="M592.82,340.47s-27.9-10.51-24.13-19.16S592.82,340.47,592.82,340.47Z"/><path class="cls-8" d="M593,353.51s16.87-13.91,9.08-20.9S593,353.51,593,353.51Z"/><path class="cls-8" d="M593,353.51s-8.64-25.1-19.15-22S593,353.51,593,353.51Z"/><path class="cls-7" d="M593,353.51s27.89-10.52,24.12-19.17S593,353.51,593,353.51Z"/><path class="cls-8" d="M562.26,378.17s-15.94-8.87-10.6-15.78S562.26,378.17,562.26,378.17Z"/><path class="cls-7" d="M562.26,378.17s3.31-21.91,12.41-21S562.26,378.17,562.26,378.17Z"/><path class="cls-7" d="M562.26,378.17s-24.48-4.43-22.69-12.09S562.26,378.17,562.26,378.17Z"/><path class="cls-8" d="M564.35,388.84s11.75-14,4.31-18.52S564.35,388.84,564.35,388.84Z"/><path class="cls-8" d="M564.35,388.84s-10.88-19.3-19-15.18S564.35,388.84,564.35,388.84Z"/><path class="cls-7" d="M564.35,388.84s21.32-12.83,16.92-19.36S564.35,388.84,564.35,388.84Z"/><path class="cls-8" d="M624,366.58s-11.07-14.51-3.41-18.71S624,366.58,624,366.58Z"/><path class="cls-7" d="M624,366.58s11.79-18.76,19.75-14.25S624,366.58,624,366.58Z"/><path class="cls-7" d="M624,366.58s-20.67-13.85-16-20.16S624,366.58,624,366.58Z"/><path class="cls-8" d="M621.66,377.2S638,369.1,633,361.94,621.66,377.2,621.66,377.2Z"/><path class="cls-8" d="M621.66,377.2s-2.26-22-11.38-21.53S621.66,377.2,621.66,377.2Z"/><path class="cls-7" d="M621.66,377.2s24.67-3.25,23.25-11S621.66,377.2,621.66,377.2Z"/><polygon class="cls-3" points="624.52 398.21 619.41 433.91 591.85 478.32 591.85 467.38 615.93 433.91 624.52 398.21"/><polygon class="cls-3" points="591.16 483.85 591.16 490.2 565.48 474.32 558.36 438.13 568.33 471.85 591.16 483.85"/><path class="cls-8" d="M624.59,398.21s17.11-9.52,11.38-16.93S624.59,398.21,624.59,398.21Z"/><path class="cls-7" d="M624.59,398.21s-3.55-23.5-13.3-22.48S624.59,398.21,624.59,398.21Z"/><path class="cls-7" d="M624.59,398.21s26.27-4.75,24.34-13S624.59,398.21,624.59,398.21Z"/><path class="cls-8" d="M622.35,409.66s-12.6-15-4.62-19.87S622.35,409.66,622.35,409.66Z"/><path class="cls-8" d="M622.35,409.66S634,389,642.78,393.37,622.35,409.66,622.35,409.66Z"/><path class="cls-7" d="M622.35,409.66s-22.86-13.77-18.14-20.78S622.35,409.66,622.35,409.66Z"/><path class="cls-8" d="M558.36,438.13s11.87-15.56,3.66-20.06S558.36,438.13,558.36,438.13Z"/><path class="cls-7" d="M558.36,438.13S545.71,418,537.18,422.84,558.36,438.13,558.36,438.13Z"/><path class="cls-7" d="M558.36,438.13s22.17-14.85,17.12-21.62S558.36,438.13,558.36,438.13Z"/><path class="cls-8" d="M560.88,449.52s-17.54-8.69-12.18-16.36S560.88,449.52,560.88,449.52Z"/><path class="cls-8" d="M560.88,449.52s2.42-23.64,12.21-23.09S560.88,449.52,560.88,449.52Z"/><path class="cls-7" d="M560.88,449.52S534.42,446,536,437.73,560.88,449.52,560.88,449.52Z"/><polygon class="cls-3" points="601.82 624.35 605.13 416.42 608.54 625.16 601.82 624.35"/><polygon class="cls-3" points="582.25 444.7 585.83 469.68 605.11 500.75 605.11 493.09 588.27 469.68 582.25 444.7"/><polygon class="cls-3" points="605.59 467.99 605.59 472.43 623.56 461.32 628.54 436.01 621.57 459.59 605.59 467.99"/><path class="cls-8" d="M605.13,416.42s-12.66-10.44-6.81-15.68S605.13,416.42,605.13,416.42Z"/><path class="cls-7" d="M605.13,416.42s6.49-18.84,14.38-16.52S605.13,416.42,605.13,416.42Z"/><path class="cls-7" d="M605.13,416.42S584.2,408.53,587,402,605.13,416.42,605.13,416.42Z"/><path class="cls-8" d="M605.25,426.2s12.66-10.44,6.82-15.68S605.25,426.2,605.25,426.2Z"/><path class="cls-8" d="M605.25,426.2s-6.49-18.84-14.37-16.52S605.25,426.2,605.25,426.2Z"/><path class="cls-7" d="M605.25,426.2s20.93-7.9,18.1-14.38S605.25,426.2,605.25,426.2Z"/><path class="cls-8" d="M582.21,444.7s-12-6.66-8-11.84S582.21,444.7,582.21,444.7Z"/><path class="cls-7" d="M582.21,444.7s2.48-16.43,9.3-15.72S582.21,444.7,582.21,444.7Z"/><path class="cls-7" d="M582.21,444.7s-18.37-3.32-17-9.07S582.21,444.7,582.21,444.7Z"/><path class="cls-8" d="M583.77,452.71s8.82-10.47,3.24-13.89S583.77,452.71,583.77,452.71Z"/><path class="cls-8" d="M583.77,452.71s-8.16-14.48-14.28-11.39S583.77,452.71,583.77,452.71Z"/><path class="cls-7" d="M583.77,452.71s16-9.63,12.7-14.53S583.77,452.71,583.77,452.71Z"/><path class="cls-8" d="M628.54,436s-8.3-10.89-2.56-14S628.54,436,628.54,436Z"/><path class="cls-7" d="M628.54,436s8.85-14.08,14.82-10.7S628.54,436,628.54,436Z"/><path class="cls-7" d="M628.54,436s-15.51-10.39-12-15.13S628.54,436,628.54,436Z"/><path class="cls-8" d="M626.78,444s12.27-6.07,8.52-11.44S626.78,444,626.78,444Z"/><path class="cls-8" d="M626.78,444s-1.7-16.53-8.54-16.15S626.78,444,626.78,444Z"/><path class="cls-7" d="M626.78,444s18.51-2.43,17.44-8.24S626.78,444,626.78,444Z"/><polygon class="cls-3" points="628.93 459.74 625.09 486.53 604.41 519.86 604.41 511.65 622.48 486.53 628.93 459.74"/><polygon class="cls-3" points="603.89 524 603.89 528.77 584.62 516.85 579.28 489.7 586.76 515 603.89 524"/><path class="cls-8" d="M629,459.74s12.83-7.14,8.54-12.7S629,459.74,629,459.74Z"/><path class="cls-7" d="M629,459.74s-2.67-17.63-10-16.87S629,459.74,629,459.74Z"/><path class="cls-7" d="M629,459.74s19.7-3.56,18.26-9.73S629,459.74,629,459.74Z"/><path class="cls-8" d="M627.3,468.33s-9.46-11.24-3.47-14.9S627.3,468.33,627.3,468.33Z"/><path class="cls-8" d="M627.3,468.33s8.75-15.53,15.32-12.22S627.3,468.33,627.3,468.33Z"/><path class="cls-7" d="M627.3,468.33S610.14,458,613.68,452.74,627.3,468.33,627.3,468.33Z"/><path class="cls-8" d="M579.28,489.7S588.19,478,582,474.64,579.28,489.7,579.28,489.7Z"/><path class="cls-7" d="M579.28,489.7s-9.49-15.1-15.9-11.47S579.28,489.7,579.28,489.7Z"/><path class="cls-7" d="M579.28,489.7s16.64-11.15,12.85-16.23S579.28,489.7,579.28,489.7Z"/><path class="cls-8" d="M581.17,498.24S568,491.73,572,486,581.17,498.24,581.17,498.24Z"/><path class="cls-8" d="M581.17,498.24s1.82-17.73,9.16-17.32S581.17,498.24,581.17,498.24Z"/><path class="cls-7" d="M581.17,498.24s-19.85-2.61-18.71-8.84S581.17,498.24,581.17,498.24Z"/><path class="cls-9" d="M1557.37,100.65l-5-1.25,2.68-10.54a5.4,5.4,0,0,0,.08-3.1,2.39,2.39,0,0,0-1.82-1.5,3.11,3.11,0,0,0-3.12.69,9.35,9.35,0,0,0-2,4.35l-2.15,8.48-5-1.25,4.58-18,3.78,1,.09,2.48.27.07a5.28,5.28,0,0,1,2.61-1.41,7.22,7.22,0,0,1,3.35.1c2.72.69,4.33,2,4.85,4l.44.11a5.05,5.05,0,0,1,2.65-1.4,7.54,7.54,0,0,1,3.39.12,6.53,6.53,0,0,1,4.27,2.76c.79,1.31.89,3.13.31,5.44l-3,11.77-5-1.26,2.67-10.54a5.5,5.5,0,0,0,.09-3.1,2.42,2.42,0,0,0-1.83-1.5,3.19,3.19,0,0,0-3.05.6,7.49,7.49,0,0,0-1.94,3.87Z"/><path class="cls-9" d="M1581.23,108.1a9.75,9.75,0,0,1-5.94-4.58,9.38,9.38,0,0,1-.22-7.47c1-3,2.49-5,4.51-6.13a8.41,8.41,0,0,1,7-.38,8.28,8.28,0,0,1,5.17,4.07,8.47,8.47,0,0,1,.15,6.59l-.77,2.34-11.48-3.79a4.85,4.85,0,0,0,.17,3.61,4.57,4.57,0,0,0,2.83,2.22,13.56,13.56,0,0,0,3.15.67,15.12,15.12,0,0,0,3.34-.07l-1.23,3.73a11.37,11.37,0,0,1-3,0A18.44,18.44,0,0,1,1581.23,108.1ZM1585.47,93a3.24,3.24,0,0,0-2.74.17,4.68,4.68,0,0,0-1.92,2.43l6.82,2.25a4.23,4.23,0,0,0,0-3.07A3.35,3.35,0,0,0,1585.47,93Z"/><path class="cls-9" d="M1608.32,117.84l-4.76-1.88,4-10.11a5.24,5.24,0,0,0,.44-3.08,2.64,2.64,0,0,0-1.77-1.78,3.48,3.48,0,0,0-3.41.19,8.84,8.84,0,0,0-2.62,4l-3.21,8.15-4.76-1.88,6.83-17.32,3.63,1.44-.23,2.46.26.11a5.36,5.36,0,0,1,2.94-1,8.05,8.05,0,0,1,3.43.61,6.59,6.59,0,0,1,4,3.45,7,7,0,0,1-.29,5.34Z"/><path class="cls-9" d="M1627.05,120.23a5.12,5.12,0,0,1-3.64,3.14c-1.63.36-3.65,0-6.07-1.12a19.06,19.06,0,0,1-3.06-1.69,13.79,13.79,0,0,1-2.13-1.86l1.74-3.82a18,18,0,0,0,2.46,2.35,12.58,12.58,0,0,0,2.68,1.71c1.69.77,2.75.67,3.19-.3a1.31,1.31,0,0,0,.07-1,5.33,5.33,0,0,0-.81-1.3c-.41-.54-1-1.21-1.73-2a15.06,15.06,0,0,1-2.21-2.83,4.64,4.64,0,0,1-.61-2.21,5.7,5.7,0,0,1,.59-2.41,4.39,4.39,0,0,1,3.35-2.69,9.48,9.48,0,0,1,5.56,1,15.55,15.55,0,0,1,5.39,4.07L1628.9,112c-.69-.75-1.35-1.41-2-2a8,8,0,0,0-2.11-1.39c-1.38-.63-2.23-.57-2.57.17a1.44,1.44,0,0,0,.18,1.38,20.29,20.29,0,0,0,2.29,2.67,15.07,15.07,0,0,1,2.25,2.83,4.92,4.92,0,0,1,.64,2.24A5.34,5.34,0,0,1,1627.05,120.23Z"/><path class="cls-9" d="M1636.83,127.19a11,11,0,0,0,3.14.94l-1.71,3.37a11.46,11.46,0,0,1-4.57-1.37,5.76,5.76,0,0,1-3.3-3.39,6.71,6.71,0,0,1,.85-4.75l4-8-2.18-1.1,1-1.92,3.28-.24,3.09-2.84,2.92,1.48-1.79,3.53,4.68,2.38-1.72,3.4-4.69-2.37-4,8a2,2,0,0,0-.18,1.7A2.42,2.42,0,0,0,1636.83,127.19Z"/><path class="cls-9" d="M1659.53,122.19a8.27,8.27,0,0,1,1.44,1l-2.66,4a5.58,5.58,0,0,0-1.24-.88,5.38,5.38,0,0,0-3.94-.77,4.49,4.49,0,0,0-2.89,2.38l-4.62,8.28-4.47-2.49,9.07-16.26,3.39,1.89-.87,3.1.22.12a6.94,6.94,0,0,1,3.29-1.05A5.83,5.83,0,0,1,1659.53,122.19Z"/><path class="cls-9" d="M1665.77,148.19l.68-2.38-.23-.14a5.35,5.35,0,0,1-3,.46,8,8,0,0,1-3.29-1.22,6.57,6.57,0,0,1-3.29-4.13,7,7,0,0,1,1.26-5.17l6.43-10.29,4.34,2.71-5.77,9.22a5.22,5.22,0,0,0-1,2.94,2.64,2.64,0,0,0,1.42,2.07,3.44,3.44,0,0,0,3.38.44,8.8,8.8,0,0,0,3.32-3.49l4.64-7.43,4.34,2.71-9.87,15.78Z"/><path class="cls-9" d="M1683,160l.65-2.64-.11-.07a7.5,7.5,0,0,1-3.46.29,8.57,8.57,0,0,1-3.27-1.55,5.77,5.77,0,0,1-2.59-3.7,5.84,5.84,0,0,1,1.25-4.46,4.89,4.89,0,0,1,4.22-2.36,12.09,12.09,0,0,1,6,2.36l2.71,1.8.47-.67q1.63-2.31-.75-4a13.37,13.37,0,0,0-5.09-1.94l.59-3.78a15.34,15.34,0,0,1,6.84,2.77,9,9,0,0,1,3.78,4.67,6,6,0,0,1-1.22,5.21L1685.94,162Zm3.74-7.91-1.65-1.09a6.51,6.51,0,0,0-3.18-1.27,2.54,2.54,0,0,0-2.18,1.2q-1.23,1.75.79,3.18a4,4,0,0,0,2.91.82,3.61,3.61,0,0,0,2.43-1.59Z"/><path class="cls-9" d="M1698.43,167a10.93,10.93,0,0,0,2.9,1.52l-2.33,3a11.41,11.41,0,0,1-4.22-2.21,5.74,5.74,0,0,1-2.58-4,6.67,6.67,0,0,1,1.73-4.51l5.51-7.08-1.93-1.5,1.32-1.7,3.26.39,3.58-2.19,2.58,2-2.43,3.12,4.14,3.23-2.34,3-4.14-3.23L1698,164a2,2,0,0,0-.49,1.63A2.42,2.42,0,0,0,1698.43,167Z"/><path class="cls-9" d="M1705.38,177.46l-3.94-3.27,11.91-14.31,3.93,3.28Zm10.88-21.41c1.06-1.27,2.3-1.32,3.73-.13s1.61,2.42.55,3.69a2.41,2.41,0,0,1-1.71,1,2.93,2.93,0,0,1-2-.83Q1714.67,158,1716.26,156.05Z"/><path class="cls-9" d="M1728.23,185.25a10,10,0,0,1-6.56,3.65,8.78,8.78,0,0,1-6.71-2.61,9.41,9.41,0,0,1-2.74-4.06,7.77,7.77,0,0,1-.09-4.63,11.25,11.25,0,0,1,2.62-4.54,9.91,9.91,0,0,1,6.53-3.66,8.86,8.86,0,0,1,6.7,2.65,9.49,9.49,0,0,1,2.75,4.06,7.78,7.78,0,0,1,.11,4.61A11.21,11.21,0,0,1,1728.23,185.25Zm-9.61-8.7a7.77,7.77,0,0,0-2.13,3.72,3.27,3.27,0,0,0,1.26,3,3.2,3.2,0,0,0,3.13.93,7.86,7.86,0,0,0,3.47-2.5,7.61,7.61,0,0,0,2.11-3.68,3.86,3.86,0,0,0-4.38-4A7.58,7.58,0,0,0,1718.62,176.55Z"/><path class="cls-9" d="M1736.93,207.2l-3.59-3.64,7.74-7.63a5.2,5.2,0,0,0,1.64-2.64,2.62,2.62,0,0,0-.89-2.34,3.48,3.48,0,0,0-3.2-1.21,8.8,8.8,0,0,0-4,2.63l-6.23,6.16-3.59-3.65L1738,181.81l2.74,2.78-1.21,2.16.2.21a5.36,5.36,0,0,1,3.11.24,8.23,8.23,0,0,1,2.89,1.94,6.61,6.61,0,0,1,2.23,4.77,7,7,0,0,1-2.42,4.77Z"/><path class="cls-10" d="M1853.65,495.77l.25-4.42-14.78-.84.29-5.11,14.78.84.16-2.81,2.44.14,1.21,2.89,1.36.07a6.13,6.13,0,0,1,4.55,1.84c.91,1.11,1.3,2.81,1.17,5.13a13.24,13.24,0,0,1-1,4.66l-3.64-1.52a9.94,9.94,0,0,0,.64-2.82,1.85,1.85,0,0,0-.55-1.61,2.66,2.66,0,0,0-1.61-.58l-1.16-.07-.26,4.43Z"/><path class="cls-10" d="M1846.26,515.51a9.9,9.9,0,0,1-6.83-3.12,8.78,8.78,0,0,1-1.87-6.95,9.43,9.43,0,0,1,1.65-4.62,7.77,7.77,0,0,1,3.68-2.81,11.16,11.16,0,0,1,5.21-.58q4.55.46,6.81,3.1a8.86,8.86,0,0,1,1.84,7,9.52,9.52,0,0,1-1.64,4.62,7.85,7.85,0,0,1-3.65,2.81A11.12,11.12,0,0,1,1846.26,515.51Zm1.31-12.89a7.75,7.75,0,0,0-4.25.48,3.28,3.28,0,0,0-1.71,2.82,3.22,3.22,0,0,0,1.1,3.07,7.92,7.92,0,0,0,4.08,1.32,7.75,7.75,0,0,0,4.21-.48,3.3,3.3,0,0,0,1.68-2.82,3.26,3.26,0,0,0-1.07-3.07A7.66,7.66,0,0,0,1847.57,502.62Z"/><path class="cls-10" d="M1835.62,523.57l.73-5.06,25.64,3.68-.73,5.07Z"/><path class="cls-10" d="M1833.94,533.76l.87-5,25.53,4.39-.87,5Z"/><path class="cls-10" d="M1832,543.9l1-5,18.25,3.65-1,5Zm24-.64q2.43.5,1.89,3.22t-3,2.24a2.41,2.41,0,0,1-1.67-1,2.91,2.91,0,0,1-.23-2.18C1853.37,543.68,1854.37,542.94,1856,543.26Z"/><path class="cls-10" d="M1828.85,556.27q2-8.52,11.32-6.3c3.07.73,5.24,2.07,6.5,4a9,9,0,0,1,.85,7.22,13.17,13.17,0,0,1-2.59,5.38l-3.47-2.38c.5-.71.93-1.37,1.29-2a7.37,7.37,0,0,0,.78-2q.93-3.88-4.54-5.19c-3.54-.85-5.62,0-6.24,2.61a9.45,9.45,0,0,0-.26,2.75,9.7,9.7,0,0,0,.61,2.73l-4.23-1a8.52,8.52,0,0,1-.47-2.69A14.61,14.61,0,0,1,1828.85,556.27Z"/><path class="cls-10" d="M1823.08,578.57h2.48l.07-.26a5.42,5.42,0,0,1-1.26-2.8,7.91,7.91,0,0,1,.3-3.5,6.56,6.56,0,0,1,3.09-4.28,7,7,0,0,1,5.32-.17l11.64,3.43-1.45,4.91-10.42-3.08a5.14,5.14,0,0,0-3.11-.16,2.61,2.61,0,0,0-1.61,1.91,3.45,3.45,0,0,0,.48,3.38,8.84,8.84,0,0,0,4.26,2.26l8.4,2.48-1.45,4.9L1822,582.33Z"/><path class="cls-10" d="M1818.63,592l1.66-4.84,24.5,8.4-1.66,4.84Z"/><path class="cls-10" d="M1812.65,607.94h2.71l.05-.12a7.62,7.62,0,0,1-1.12-3.29A8.62,8.62,0,0,1,1815,601a5.35,5.35,0,0,1,7.6-3.27,4.89,4.89,0,0,1,3.31,3.54,12.09,12.09,0,0,1-.83,6.43l-1.09,3.07.76.29c1.76.69,3,.12,3.7-1.69a13.51,13.51,0,0,0,.66-5.41l3.81-.34a15.38,15.38,0,0,1-1,7.3,8.93,8.93,0,0,1-3.62,4.8,6,6,0,0,1-5.35.08l-11.56-4.51Zm8.58,1.72.66-1.87a6.46,6.46,0,0,0,.46-3.38,2.5,2.5,0,0,0-1.69-1.83c-1.33-.52-2.3,0-2.9,1.54a3.9,3.9,0,0,0-.08,3,3.52,3.52,0,0,0,2.12,2Z"/><path class="cls-10" d="M1822.43,633.12a7.94,7.94,0,0,1-.84,1.52l-4.19-2.29a5.81,5.81,0,0,0,.76-1.31,5.42,5.42,0,0,0,.42-4,4.49,4.49,0,0,0-2.64-2.68l-8.65-3.85,2.08-4.67,17,7.57-1.58,3.54-3.16-.58-.11.23a6.94,6.94,0,0,1,1.35,3.17A5.87,5.87,0,0,1,1822.43,633.12Z"/><path class="cls-10" d="M1085.27,427.11l-.5,5.09L1059,429.69l.49-5.09Z"/><path class="cls-10" d="M1087.6,408.86l-2.46.35,0,.26a5.4,5.4,0,0,1,1.67,2.59,8.12,8.12,0,0,1,.22,3.51,6.55,6.55,0,0,1-2.44,4.68,7,7,0,0,1-5.23,1l-12-1.69.71-5.07,10.77,1.52a5.17,5.17,0,0,0,3.09-.3,2.63,2.63,0,0,0,1.32-2.13,3.46,3.46,0,0,0-1-3.27,8.81,8.81,0,0,0-4.54-1.61l-8.67-1.22.71-5.06,18.43,2.59Z"/><path class="cls-10" d="M1086.9,391.53a11,11,0,0,0,0-3.27l3.71.71a11.45,11.45,0,0,1,0,4.77,5.81,5.81,0,0,1-2.35,4.1,6.75,6.75,0,0,1-4.81.51l-8.81-1.69-.46,2.41-2.11-.41-1.14-3.08-3.58-2.19.61-3.21,3.9.74,1-5.15,3.75.71-1,5.16,8.81,1.68a2,2,0,0,0,1.69-.3A2.44,2.44,0,0,0,1086.9,391.53Z"/><path class="cls-10" d="M1094.17,377.41a9.69,9.69,0,0,1-4.06,6.31q-3,1.9-7.43.84c-3-.72-5.19-2.05-6.48-4a8.41,8.41,0,0,1-1-6.93,8.32,8.32,0,0,1,3.63-5.5,8.46,8.46,0,0,1,6.55-.71l2.4.58L1085,379.79a4.9,4.9,0,0,0,3.59-.47,4.57,4.57,0,0,0,2-3,14.55,14.55,0,0,0,.41-3.2,16.85,16.85,0,0,0-.35-3.33l3.82.92a12.05,12.05,0,0,1,.29,3A17.73,17.73,0,0,1,1094.17,377.41Zm-15.42-3a3.27,3.27,0,0,0,.4,2.72,4.71,4.71,0,0,0,2.58,1.71l1.67-7a4.26,4.26,0,0,0-3.05.29A3.37,3.37,0,0,0,1078.75,374.46Z"/><path class="cls-10" d="M1100,354.78l-2.71.23,0,.13a7.47,7.47,0,0,1,1.39,3.19,8.72,8.72,0,0,1-.41,3.59,5.81,5.81,0,0,1-2.68,3.64,5.91,5.91,0,0,1-4.63.25,4.91,4.91,0,0,1-3.59-3.25,12.23,12.23,0,0,1,.3-6.48l.83-3.15-.78-.23c-1.81-.54-3,.13-3.55,2a13.61,13.61,0,0,0-.21,5.45l-3.77.65a15.31,15.31,0,0,1,.44-7.36,8.93,8.93,0,0,1,3.21-5.09,6,6,0,0,1,5.33-.51l11.89,3.53Zm-8.7-1-.5,1.91a6.39,6.39,0,0,0-.18,3.41,2.48,2.48,0,0,0,1.83,1.68c1.37.41,2.3-.18,2.77-1.77a4,4,0,0,0-.17-3,3.53,3.53,0,0,0-2.28-1.79Z"/><path class="cls-10" d="M1104.35,341.74l-1.65,4.84-24.52-8.39,1.66-4.84Z"/><path class="cls-11" d="M1616.56,140.53l-38,79.67,2.13,1,38-79.67Zm125.54,98.28-68.52,55.64,1.48,1.83,68.53-55.64C1743.09,240,1742.6,239.42,1742.1,238.81Zm71.76,144.37L1728,403.59c.18.76.37,1.53.55,2.3l85.88-20.42C1814.23,384.71,1814.05,383.94,1813.86,383.18Zm10,80.25-88.26.85c0,.78,0,1.57,0,2.36l88.26-.86C1823.86,465,1823.85,464.21,1823.84,463.43ZM1710.12,583.71c-.34.71-.68,1.42-1,2.13L1789,623.4c.34-.7.67-1.41,1-2.12Zm-75.79,97.14c-.6.5-1.22,1-1.84,1.49l55.37,68.75,1.83-1.48Zm-109.79,54.06c-.77.18-1.54.36-2.3.52l19.91,86,2.3-.53Zm-184.38-21-38.75,79.32,2.11,1,38.75-79.32ZM1244.9,636l-69.53,54.36c.48.63,1,1.25,1.46,1.86l69.53-54.36Zm-51.46-110.73-86.25,18.79c.16.77.31,1.53.49,2.3l86.26-18.78C1193.76,526.82,1193.6,526.05,1193.44,525.28Zm-84-143c-.19.77-.37,1.52-.54,2.29l85.83,20.62.54-2.29Zm71-142.73c-.5.61-1,1.21-1.49,1.82l68.67,55.45L1249,295ZM1305.53,141l-2.13,1,38.26,79.56c.7-.35,1.42-.69,2.13-1Zm156-35.21h-1.18v88.26h2.36V105.79Zm-81.14,9.12L1399.89,201c.77-.19,1.54-.36,2.3-.53l-19.49-86.1Zm-142.78,68.33c-.63.49-1.25,1-1.85,1.47l54.77,69.22,1.85-1.47ZM1136.91,307c-.34.71-.68,1.41-1,2.12l79.2,39c.34-.71.7-1.41,1.05-2.12Zm-37.67,156.58c0,.78,0,1.57,0,2.36l88.25.83c0-.79,0-1.58,0-2.36ZM1213,583.84l-79.88,37.6c.33.71.66,1.43,1,2.13L1214,586Zm75.31,96.67-55.49,68.66c.6.5,1.21,1,1.83,1.48L1290.17,682C1289.55,681.51,1289,681,1288.34,680.51Zm110.09,54.37-20,86,2.31.53,19.94-86C1400,735.24,1399.2,735.07,1398.43,734.88Zm63.11,7.31h-1.18v88.26h2.36V742.18Zm120.94-28.07-2.11,1L1619,794.55l2.12-1Zm95.25-77.53c-.49.62-1,1.24-1.47,1.84l69.4,54.56,1.46-1.85Zm51.83-110.94q-.24,1.15-.51,2.31l86.23,18.89c.19-.77.36-1.53.52-2.3Zm56-219.87-79.06,39.29c.35.7.71,1.4,1.06,2.11l79-39.29C1786.27,307.19,1785.92,306.48,1785.56,305.78ZM1684.81,182.72l-54.61,69.35,1.85,1.46,54.61-69.34C1686,183.69,1685.43,183.2,1684.81,182.72Zm-145.19-68.5-19.3,86.14,2.3.52,19.3-86.15Z"/><path class="cls-8" d="M1460.36,105.79v88.26a273.93,273.93,0,0,0-58.17,6.43l-19.49-86.1A362.58,362.58,0,0,1,1460.36,105.79Z"/><path class="cls-8" d="M1399.89,201a270.79,270.79,0,0,0-56.1,19.55L1305.53,141a359.49,359.49,0,0,1,74.87-26.09Z"/><path class="cls-8" d="M1341.66,221.58a274.45,274.45,0,0,0-49.27,30.87l-54.77-69.22A363.1,363.1,0,0,1,1303.4,142Z"/><path class="cls-8" d="M1290.54,253.92A274.74,274.74,0,0,0,1249,295l-68.66-55.45a362.86,362.86,0,0,1,55.39-54.87Z"/><path class="cls-8" d="M1247.56,296.84A273.23,273.23,0,0,0,1216.13,346l-79.22-39a363.73,363.73,0,0,1,42-65.57Z"/><path class="cls-8" d="M1215.08,348.08a272.79,272.79,0,0,0-19.82,54.84l-85.83-20.62a359.35,359.35,0,0,1,26.45-73.22Z"/><path class="cls-8" d="M1194.72,405.21a274.45,274.45,0,0,0-7.24,59.16l-88.24-.83a362,362,0,0,1,9.65-79Z"/><path class="cls-8" d="M1193.44,525.28l-86.25,18.79a362.7,362.7,0,0,1-8-76c0-.75,0-1.48,0-2.22l88.25.83c0,.46,0,.93,0,1.39A274.58,274.58,0,0,0,1193.44,525.28Z"/><path class="cls-8" d="M1213,583.84l-79.88,37.6a359.71,359.71,0,0,1-25.47-75.07l86.26-18.78A272.13,272.13,0,0,0,1213,583.84Z"/><path class="cls-8" d="M1244.9,636l-69.53,54.36a361.43,361.43,0,0,1-41.22-66.8L1214,586A273.86,273.86,0,0,0,1244.9,636Z"/><path class="cls-8" d="M1288.34,680.51l-55.49,68.66a363.91,363.91,0,0,1-56-56.94l69.53-54.36A273.93,273.93,0,0,0,1288.34,680.51Z"/><path class="cls-8" d="M1340.16,713.91l-38.75,79.32a362.86,362.86,0,0,1-66.73-42.58L1290.17,682A274.59,274.59,0,0,0,1340.16,713.91Z"/><path class="cls-10" d="M1398.43,734.88l-20,86a359.1,359.1,0,0,1-75-26.62l38.75-79.32A271.49,271.49,0,0,0,1398.43,734.88Z"/><path class="cls-10" d="M1460.36,742.18v88.26a362.73,362.73,0,0,1-79.57-9l19.94-86A273.68,273.68,0,0,0,1460.36,742.18Z"/><path class="cls-11" d="M1542.15,821.44a362.67,362.67,0,0,1-79.43,9V742.18a273.43,273.43,0,0,0,59.52-6.75Z"/><path class="cls-10" d="M1619,794.55a358.76,358.76,0,0,1-74.53,26.36l-19.91-86a271.37,271.37,0,0,0,55.82-19.75h0Z"/><path class="cls-10" d="M1687.86,751.09a362.48,362.48,0,0,1-66.76,42.42l-38.62-79.39a273.59,273.59,0,0,0,50-31.78Z"/><path class="cls-10" d="M1745.66,693a363.71,363.71,0,0,1-56,56.62l-55.36-68.76a274,274,0,0,0,41.93-42.42Z"/><path class="cls-8" d="M1789,623.4a362,362,0,0,1-41.88,67.74l-69.39-54.55a274.34,274.34,0,0,0,31.38-50.75Z"/><path class="cls-8" d="M1815.28,546.85A359.08,359.08,0,0,1,1790,621.28l-79.89-37.57A272.09,272.09,0,0,0,1729.05,528Z"/><path class="cls-8" d="M1823.87,468.12a363.8,363.8,0,0,1-8.07,76.43l-86.24-18.9a274.69,274.69,0,0,0,6-57.53c0-.49,0-1,0-1.48l88.26-.86C1823.87,466.56,1823.87,467.34,1823.87,468.12Z"/><path class="cls-8" d="M1823.84,463.43l-88.26.85a273.27,273.27,0,0,0-7.06-58.39l85.88-20.42A362.66,362.66,0,0,1,1823.84,463.43Z"/><path class="cls-8" d="M1813.86,383.18,1728,403.59a271.55,271.55,0,0,0-20.41-56.41l79-39.29A359.16,359.16,0,0,1,1813.86,383.18Z"/><path class="cls-9" d="M1785.56,305.78l-79.06,39.29a273.76,273.76,0,0,0-31.44-48.79l68.53-55.64A363,363,0,0,1,1785.56,305.78Z"/><path class="cls-9" d="M1742.1,238.81l-68.52,55.64a275.16,275.16,0,0,0-41.53-40.92l54.61-69.34A363.84,363.84,0,0,1,1742.1,238.81Z"/><path class="cls-9" d="M1684.81,182.72l-54.61,69.35a273.71,273.71,0,0,0-49.53-30.86l38-79.67A362.93,362.93,0,0,1,1684.81,182.72Z"/><path class="cls-9" d="M1616.56,140.53l-38,79.67a270.58,270.58,0,0,0-55.92-19.32l19.3-86.15A358.72,358.72,0,0,1,1616.56,140.53Z"/><path class="cls-9" d="M1539.62,114.22l-19.3,86.14a273.92,273.92,0,0,0-57.6-6.31V105.79A362.17,362.17,0,0,1,1539.62,114.22Z"/><path class="cls-12" d="M1462.72,105.79v88.26h-2.36V105.79h2.36Z"/><path class="cls-12" d="M1786.61,307.89l-79,39.29c-.35-.71-.71-1.41-1.06-2.11l79.06-39.29C1785.92,306.48,1786.27,307.19,1786.61,307.89Z"/><path class="cls-12" d="M1541.92,114.73l-19.3,86.15-2.3-.52,19.3-86.14Z"/><path class="cls-12" d="M1618.69,141.54l-38,79.67-2.13-1,38-79.67Z"/><path class="cls-12" d="M1686.66,184.19l-54.61,69.34-1.85-1.46,54.61-69.35C1685.43,183.2,1686,183.69,1686.66,184.19Z"/><path class="cls-12" d="M1743.59,240.64l-68.53,55.64-1.48-1.83,68.52-55.64C1742.6,239.42,1743.09,240,1743.59,240.64Z"/><path class="cls-12" d="M1814.4,385.47l-85.88,20.42c-.18-.77-.37-1.54-.55-2.3l85.89-20.41C1814.05,383.94,1814.23,384.71,1814.4,385.47Z"/><path class="cls-12" d="M1823.86,465.78l-88.26.86c0-.79,0-1.58,0-2.36l88.26-.85C1823.85,464.21,1823.86,465,1823.86,465.78Z"/><path class="cls-12" d="M1790,621.28c-.34.71-.67,1.42-1,2.12l-79.89-37.56c.33-.71.67-1.42,1-2.13Z"/><path class="cls-12" d="M1815.8,544.55c-.16.77-.33,1.53-.52,2.3L1729.05,528q.27-1.15.51-2.31Z"/><path class="cls-12" d="M1689.69,749.61l-1.83,1.48-55.37-68.75c.62-.48,1.24-1,1.84-1.49Z"/><path class="cls-12" d="M1747.12,691.14l-1.46,1.85-69.4-54.56c.5-.6,1-1.22,1.47-1.84Z"/><path class="cls-12" d="M1544.45,820.91l-2.3.53-19.91-86c.76-.16,1.53-.34,2.3-.52Z"/><path class="cls-12" d="M1621.1,793.51l-2.12,1-38.61-79.39,2.11-1Z"/><path class="cls-12" d="M1402.19,200.48c-.76.17-1.53.34-2.3.53L1380.4,114.9l2.3-.52Z"/><path class="cls-12" d="M1462.72,742.18v88.26h-2.36V742.18h2.36Z"/><path class="cls-12" d="M1343.79,220.56c-.71.33-1.43.67-2.13,1L1303.4,142l2.13-1Z"/><path class="cls-12" d="M1292.39,252.45l-1.85,1.47-54.77-69.22c.6-.49,1.22-1,1.85-1.47Z"/><path class="cls-12" d="M1249,295l-1.48,1.82-68.67-55.45c.49-.61,1-1.21,1.49-1.82Z"/><path class="cls-12" d="M1216.13,346c-.35.71-.71,1.41-1.05,2.12l-79.2-39c.35-.71.69-1.41,1-2.12Z"/><path class="cls-12" d="M1195.26,402.92l-.54,2.29-85.83-20.62c.17-.77.35-1.52.54-2.29Z"/><path class="cls-12" d="M1187.48,464.37c0,.78,0,1.57,0,2.36l-88.25-.83c0-.79,0-1.58,0-2.36Z"/><path class="cls-12" d="M1193.94,527.59l-86.26,18.78c-.18-.77-.33-1.53-.49-2.3l86.25-18.79C1193.6,526.05,1193.76,526.82,1193.94,527.59Z"/><path class="cls-12" d="M1214,586l-79.88,37.6c-.34-.7-.67-1.42-1-2.13l79.88-37.6Z"/><path class="cls-12" d="M1246.36,637.87l-69.53,54.36c-.49-.61-1-1.23-1.46-1.86L1244.9,636Z"/><path class="cls-12" d="M1290.17,682l-55.49,68.65c-.62-.49-1.23-1-1.83-1.48l55.49-68.66C1289,681,1289.55,681.51,1290.17,682Z"/><path class="cls-12" d="M1342.27,714.94l-38.75,79.32-2.11-1,38.75-79.32Z"/><path class="cls-12" d="M1400.73,735.41l-19.94,86-2.31-.53,20-86C1399.2,735.07,1400,735.24,1400.73,735.41Z"/><text class="cls-13" transform="translate(1486.15 155.02) scale(1.01 1)">1</text><text class="cls-13" transform="translate(1557.43 172.97) scale(1.01 1)">2</text><text class="cls-13" transform="translate(1623.38 205.07) scale(1.01 1)">3</text><text class="cls-13" transform="translate(1675.06 249.69) scale(1.01 1)">4</text><text class="cls-13" transform="translate(1719.68 305.78) scale(1.01 1)">5</text><text class="cls-13" transform="translate(1749.6 371.07) scale(1.01 1)">6</text><text class="cls-13" transform="translate(1762.7 439.09) scale(1.01 1)">7</text><text class="cls-13" transform="translate(1762.7 507.1) scale(1.01 1)">8</text><text class="cls-13" transform="translate(1747.12 574.51) scale(1.01 1)">9</text><text class="cls-13" transform="translate(1719.68 647.42) scale(1.01 1)">10</text><text class="cls-13" transform="translate(1677.73 698.57) scale(1.01 1)">11</text><text class="cls-13" transform="translate(1616.79 746.45) scale(1.01 1)">12</text><text class="cls-13" transform="translate(1553.13 774.2) scale(1.01 1)">13</text><text class="cls-13" transform="translate(1480.22 789.98) scale(1.01 1)">14</text><text class="cls-13" transform="translate(1413.84 789.98) scale(1.01 1)">15</text><text class="cls-13" transform="translate(1344.44 776.79) scale(1.01 1)">16</text><text class="cls-13" transform="translate(1278.06 746.45) scale(1.01 1)">17</text><text class="cls-13" transform="translate(1218.21 698.57) scale(1.01 1)">18</text><text class="cls-13" transform="translate(1175.37 644.16) scale(1.01 1)">19</text><text class="cls-13" transform="translate(1144.86 578.5) scale(1.01 1)">20</text><text class="cls-13" transform="translate(1129.63 507.1) scale(1.01 1)">21</text><text class="cls-13" transform="translate(1129.63 437.09) scale(1.01 1)">22</text><text class="cls-13" transform="translate(1144.86 365.27) scale(1.01 1)">23</text><text class="cls-13" transform="translate(1175.37 301.79) scale(1.01 1)">24</text><text class="cls-13" transform="translate(1220.35 245.57) scale(1.01 1)">25</text><text class="cls-13" transform="translate(1274.4 203.13) scale(1.01 1)">26</text><text class="cls-13" transform="translate(1338.24 172.97) scale(1.01 1)">27</text><text class="cls-13" transform="translate(1412.24 155.02) scale(1.01 1)">28</text><text class="cls-14" transform="translate(1389.61 987.24) scale(1.01 1)">Ovulation</text><path class="cls-10" d="M1501.17,946.39a1.59,1.59,0,0,1-1.6-1.59V850.12a1.6,1.6,0,1,1,3.19,0V944.8A1.59,1.59,0,0,1,1501.17,946.39Z"/><path class="cls-10" d="M1486.15,871.58a1.6,1.6,0,0,1-1.33-2.49l15-22.31a1.6,1.6,0,0,1,1.31-.71,1.61,1.61,0,0,1,1.32.68l15.72,22.31a1.6,1.6,0,1,1-2.61,1.84l-14.38-20.41-13.73,20.38A1.58,1.58,0,0,1,1486.15,871.58Z"/><path class="cls-10" d="M1744.67,846.43a1.6,1.6,0,0,1-1.6,1.59H1648.4a1.6,1.6,0,1,1,0-3.19h94.67A1.6,1.6,0,0,1,1744.67,846.43Z"/><path class="cls-10" d="M1669.85,861.44a1.66,1.66,0,0,1-.27.9,1.6,1.6,0,0,1-2.22.43l-22.31-15a1.6,1.6,0,0,1,0-2.63l22.3-15.72a1.6,1.6,0,0,1,1.85,2.61l-20.42,14.39,20.39,13.72A1.58,1.58,0,0,1,1669.85,861.44Z"/><path class="cls-10" d="M1306.47,846.92a1.53,1.53,0,0,1-.89-.27,1.59,1.59,0,0,1-.43-2.22l15-22.3a1.6,1.6,0,0,1,1.31-.71,1.62,1.62,0,0,1,1.33.68l15.72,22.3a1.6,1.6,0,0,1-2.62,1.85l-14.38-20.41-13.72,20.38A1.6,1.6,0,0,1,1306.47,846.92Z"/><path class="cls-10" d="M1730.29,757.93a1.59,1.59,0,0,1-1.32-2.49l15-22.31a1.58,1.58,0,0,1,1.3-.7,1.63,1.63,0,0,1,1.33.67l15.72,22.31a1.6,1.6,0,0,1-2.62,1.84l-14.38-20.41-13.72,20.39A1.61,1.61,0,0,1,1730.29,757.93Z"/><polyline class="cls-15" points="1321.52 825.84 1321.52 923.58 1745.66 923.58 1745.66 736.84"/><text class="cls-16" transform="translate(1760.71 812.58) scale(1.01 1)">most<tspan x="0" y="40.92">fertile</tspan><tspan x="0" y="81.83">days</tspan></text><path class="cls-9" d="M176.06,210.09c12.22-20.83,29.91-31.51,35.9-35L415.39,57.67c6-3.46,23.68-13.2,36-6.52a25.75,25.75,0,0,1,4.75,3.29L475.68,68l-9.3,65.08,1.52,534.88c.06,22.95-2,38.4-14.61,60-12.15,20.71-29.7,31.38-35.9,35l-200,115.49-20.74,21.18L178,886.86c-12.74-6.92-14.84-20-14.9-42.94l-1.63-573.85C161.4,247.12,163.41,231.66,176.06,210.09Z"/><path class="cls-9" d="M332.38,152A10.25,10.25,0,0,0,327.7,160c0,3,2.11,4.16,4.71,2.66a10.3,10.3,0,0,0,4.67-8.08C337.08,151.64,335,150.45,332.38,152Z"/><path class="cls-10" d="M230.6,190.68,434.05,73.22c18.37-10.61,28.74-9.3,34.21-6.33,11.94,6.48,14.08,18.49,14.15,41.33L484,682.07c.07,22.84-2,37.27-13.86,57.49-5.43,9.27-15.76,22.53-34.15,33.15L232.54,890.18c-18.34,10.59-28.71,9.28-34.18,6.31-12-6.47-14.08-18.48-14.15-41.32l-1.62-573.85c-.07-22.84,2-37.27,13.86-57.5C201.89,214.55,212.22,201.29,230.6,190.68ZM196,848.39c.06,22.26,2.24,29.19,10.58,33.71,3.9,2.12,11.57,2.9,26-5.41L436,759.22c14.43-8.34,22.08-18,26-24.57,8.29-14.12,10.41-23.54,10.35-45.8L470.66,115c-.06-22.26-2.23-29.2-10.57-33.72-3.9-2.12-11.58-2.9-26,5.43L230.64,204.17c-14.43,8.33-22.08,18-25.95,24.56-8.29,14.13-10.42,23.55-10.36,45.81L196,848.39"/><path class="cls-17" d="M230.64,204.17,434.09,86.71c14.42-8.33,22.09-7.55,26-5.43,8.34,4.52,10.51,11.46,10.57,33.72l1.63,573.85c.06,22.26-2.06,31.68-10.35,45.8-3.88,6.61-11.53,16.23-26,24.56L232.51,876.69c-14.4,8.31-22.07,7.53-26,5.41C198.2,877.58,196,870.65,196,848.39l-1.62-573.86c-.07-22.26,2.06-31.67,10.34-45.8C208.56,222.13,216.21,212.5,230.64,204.17Zm101.77-41.48a10.33,10.33,0,0,0,4.68-8.08c0-3-2.12-4.16-4.71-2.66A10.25,10.25,0,0,0,327.7,160c0,3,2.11,4.16,4.71,2.66"/><path class="cls-18" d="M230.6,187.82,434,70.37c6-3.46,23.68-13.21,36-6.53,12.73,6.91,14.83,20,14.89,42.94l1.63,573.85c.07,23-1.95,38.4-14.61,60-12.15,20.7-29.69,31.39-35.9,35L232.49,893.08c-6.09,3.52-23.65,13.1-35.87,6.47-12.74-6.92-14.83-20-14.9-42.94L180.1,282.76c-.07-22.95,1.94-38.4,14.6-60C206.92,202,224.6,191.28,230.6,187.82ZM184.21,855.17c.07,22.84,2.21,34.84,14.15,41.33,5.47,3,15.84,4.27,34.18-6.32L436,772.71c18.39-10.62,28.72-23.89,34.15-33.14C482,719.34,484.1,704.91,484,682.07l-1.62-573.85c-.07-22.84-2.21-34.85-14.15-41.33-5.46-3-15.84-4.28-34.21,6.33L230.6,190.68c-18.38,10.61-28.71,23.87-34.15,33.14-11.87,20.23-13.93,34.66-13.86,57.5l1.62,573.85"/><path class="cls-8" d="M276.12,781.2c7.61-14.54,7.61-31,0-36.76s-20,1.37-27.57,15.92-7.61,31,0,36.76S268.51,795.75,276.12,781.2Z"/><path class="cls-8" d="M329.59,749.05c7.61-14.55,7.61-31,0-36.76s-20,1.37-27.57,15.92-7.62,31,0,36.76S322,763.6,329.59,749.05Z"/><path class="cls-8" d="M387,715.35c7.62-14.55,7.62-31,0-36.76S367,680,359.42,694.51s-7.61,31,0,36.76S379.38,729.9,387,715.35Z"/><path class="cls-8" d="M440.46,683.2c7.61-14.55,7.61-31,0-36.76s-20,1.37-27.57,15.91-7.61,31,0,36.77S432.85,697.74,440.46,683.2Z"/><polygon class="cls-9" points="388.11 354.21 353.8 374.02 353.8 328.28 388.11 308.47 388.11 354.21"/><polygon class="cls-9" points="354.24 373.77 319.93 393.57 319.93 347.83 354.24 328.03 354.24 373.77"/><polygon class="cls-9" points="422.15 334.56 387.84 354.37 387.84 308.63 422.15 288.82 422.15 334.56"/><polygon class="cls-9" points="454.98 315.6 420.68 335.41 420.68 289.67 454.98 269.86 454.98 315.6"/><rect class="cls-1" x="251.8" y="386.2" width="3.38" height="224.07"/><rect class="cls-1" x="285.24" y="366.89" width="3.38" height="224.08"/><rect class="cls-1" x="218.36" y="405.5" width="3.38" height="224.08"/><rect class="cls-12" x="318.68" y="347.59" width="3.38" height="224.07"/><rect class="cls-1" x="318.68" y="347.59" width="3.38" height="224.07"/><rect class="cls-1" x="352.12" y="328.28" width="3.38" height="224.08"/><rect class="cls-12" x="385.55" y="308.97" width="3.38" height="224.08"/><rect class="cls-1" x="385.55" y="308.97" width="3.38" height="224.08"/><rect class="cls-1" x="418.99" y="289.67" width="3.38" height="224.08"/><rect class="cls-12" x="452.43" y="270.36" width="3.38" height="224.08"/><rect class="cls-1" x="452.43" y="270.36" width="3.38" height="224.08"/><polygon class="cls-9" points="251.8 435.75 251.8 476.44 221.74 493.8 221.74 453.11 251.8 435.75"/><polygon class="cls-8" points="418.99 428.39 418.99 469.07 388.93 486.44 388.93 445.75 418.99 428.39"/><polygon class="cls-10" points="385.55 403.12 385.55 443.81 355.49 461.17 355.49 420.46 385.55 403.12"/><polygon class="cls-10" points="352.11 422.42 352.11 463.12 322.05 480.46 322.05 439.77 352.11 422.42"/><polygon class="cls-11" points="318.68 441.71 318.68 482.42 288.61 499.77 288.61 459.08 318.68 441.71"/><polygon class="cls-10" points="285.24 461.02 285.24 501.73 255.18 519.08 255.17 478.38 285.24 461.02"/><polygon class="cls-10" points="251.8 480.33 251.8 521.02 221.74 538.38 221.74 497.69 251.8 480.33"/><polygon class="cls-10" points="452.43 319.92 452.43 360.61 422.36 377.96 422.36 337.27 452.43 319.92"/><rect class="cls-1" x="200.95" y="560.32" width="272.28" height="3.37" transform="translate(-236 244.12) rotate(-30.03)"/><rect class="cls-12" x="200.95" y="515.74" width="272.28" height="3.37" transform="translate(-213.69 238.14) rotate(-30.03)"/><rect class="cls-1" x="200.95" y="515.74" width="272.28" height="3.37" transform="translate(-213.69 238.14) rotate(-30.03)"/><rect class="cls-1" x="200.95" y="471.15" width="272.28" height="3.37" transform="matrix(0.87, -0.5, 0.5, 0.87, -191.35, 232.1)"/><rect class="cls-12" x="200.95" y="426.57" width="272.28" height="3.37" transform="translate(-169.07 226.17) rotate(-30.03)"/><rect class="cls-1" x="200.95" y="426.57" width="272.28" height="3.37" transform="translate(-169.07 226.17) rotate(-30.03)"/><rect class="cls-1" x="200.95" y="381.99" width="272.28" height="3.37" transform="translate(-146.76 220.19) rotate(-30.03)"/><rect class="cls-12" x="200.95" y="337.4" width="272.28" height="3.37" transform="translate(-124.44 214.2) rotate(-30.03)"/><rect class="cls-1" x="200.95" y="337.4" width="272.28" height="3.37" transform="translate(-124.44 214.2) rotate(-30.03)"/><path class="cls-9" d="M389.69,630.31l-90.37,52.18c-9.85,5.69-17.84-.35-17.84-13.48h0c0-13.14,8-28.39,17.84-34.08l90.37-52.18c9.85-5.68,17.84.35,17.84,13.49h0C407.53,609.37,399.54,624.63,389.69,630.31Z"/><text class="cls-19" transform="matrix(0.88, -0.51, 0, 1, 250.78, 283.85)">PERIOD<tspan x="-41.01" y="60.01">CALENDAR</tspan></text><path class="cls-20" d="M883.88,818.91v61.25c0,3.34,5.09,6,11.37,6s11.37-2.7,11.37-6V818.91Z"/><path class="cls-20" d="M1008.44,742.15V807.5c0,3.34,5.09,6,11.37,6s11.37-2.71,11.37-6V742.15Z"/><path class="cls-20" d="M684.85,709.08v57c0,3.34,5.09,6,11.36,6s11.37-2.71,11.37-6v-57Z"/><path class="cls-3" d="M1028.33,577.56,881,493a8.85,8.85,0,0,0-6.68-1.25l-.22-.26a21,21,0,0,0-14,4.65,55.42,55.42,0,0,0-11.37,12.8l19.53,16v80.88c0,9.33,5.72,20.26,12.72,24.3l147.38,84.62c7,4,12.72-.29,12.72-9.62V601.86C1041.05,592.54,1035.32,581.6,1028.33,577.56Z"/><path class="cls-21" d="M1019.81,700.91a21.1,21.1,0,0,1-9.63,11.28c-12.34,7.15-18.12,5.51-18.12,5.51l-1.49-24.39,21.88-5.75Z"/><path class="cls-20" d="M1007.7,727.16,860.32,642.55c-7-4-12.72-15-12.72-24.3V515.09c0-9.33,5.73-13.65,12.72-9.61l147.38,84.61c7,4,12.72,15,12.72,24.3V717.55C1020.42,726.87,1014.7,731.2,1007.7,727.16Z"/><path class="cls-22" d="M841.25,513.48a55.48,55.48,0,0,0-11.37-12.79,21.08,21.08,0,0,0-14-4.66l-.22.26a8.91,8.91,0,0,0-6.68,1.26L681.46,571.18c-7,4-12.72,15-12.72,24.3V698.64a15.21,15.21,0,0,0,1.44,6.81l0,.06a21.1,21.1,0,0,0,9.63,11.28c12.34,7.14,18.12,5.5,18.12,5.5l1.49-24.38L809,634.62c7-4,12.72-15,12.72-24.3V529.44Z"/><path class="cls-3" d="M702.09,720.78l127.54-73.64c7-4,12.72-15,12.72-24.3V519.69c0-9.33-5.73-13.66-12.72-9.62L702.09,583.71c-7,4-12.72,15-12.72,24.3V711.17C689.37,720.49,695.09,724.82,702.09,720.78Z"/><path class="cls-3" d="M1003.82,723.7l-136-87c-7.11-4.1-19.63-3.58-27.84,1.15l-95,54.85-41.81-20.08c-8.39,8.24-7.42,23-7.42,36.43s4.12,16.84,10.85,20.73L849.16,813c7.11,4.1,19.63,3.58,27.84-1.15l124.82-72.06C1010,735,1010.93,727.81,1003.82,723.7Z"/><path class="cls-22" d="M706.61,683.71l142.55,83.2c7.11,4.11,19.63,3.59,27.84-1.15l124.82-72.06c8.21-4.74,9.11-12,2-16.07l-142.55-83.2c-7.1-4.11-19.63-3.59-27.83,1.15L708.61,667.64C700.41,672.38,699.51,679.61,706.61,683.71Z"/><path class="cls-23" d="M977.87,691.68,874.3,751.48c-7.89,4.55-21.8,4-30.91-1.28L727.94,683.54c-9.11-5.26-10.11-13.29-2.22-17.84l103.57-59.8c7.89-4.55,21.8-4,30.91,1.28l115.45,66.66C984.76,679.1,985.76,687.13,977.87,691.68Z"/><path class="cls-24" d="M961.61,686.16,871.4,738.24c-6.87,4-19,3.47-26.93-1.11L743.91,679.07c-7.94-4.58-8.81-11.58-1.93-15.55l90.21-52.08c6.87-4,19-3.47,26.93,1.11l100.56,58.06C967.62,675.2,968.49,682.19,961.61,686.16Z"/><path class="cls-25" d="M851.07,669.39c-6,0-10.91,2.6-10.91,5.8S845,681,851.07,681,862,678.4,862,675.19,857.1,669.39,851.07,669.39Z"/><path class="cls-25" d="M844.57,619.14s-1,5.41,1,16.91,4.79,24.68,4.79,24.68,1.72-14.87.7-24.34A41.25,41.25,0,0,0,844.57,619.14Z"/><path class="cls-25" d="M873.31,673.73s14.54-8.74,31.79-9.42,39.23,6.09,39.23,6.09-27.73-3.6-39.23-2.48S873.31,673.73,873.31,673.73Z"/><path class="cls-25" d="M755.54,667.66s15.19-7.57,32.43-6.89,38.63,9.15,38.63,9.15-27.36-5.77-38.91-5.55S755.54,667.66,755.54,667.66Z"/><path class="cls-25" d="M852.43,689.25a80,80,0,0,0-.64,21.5c.91,9.88,5.29,21.31,5.29,21.31s-.27-11.68-.68-25.7C856.05,694.18,852.43,689.25,852.43,689.25Z"/><path class="cls-2" d="M844.4,592.33c.35,14.18,15.25,29.06,21.23,33.81,12.09,9.59,25.64,16.26,39.06,23.85,14.24,8,40,15.08,59.75,6.12,13.29-6,17.16-23.9,17.78-31.82.67-8.65-1.47-16.58-2.7-25,10.54-2.18,15.44-5.33,14-9.47-1.58-4.57-5.51-5.09-15.29-4.86-1.39-11.59-5-17.75-11.1-26.71-4.69-3.14-9.55-6.07-14-9-21.25-14.12-43.4-27.39-65.38-40.36-9-5.29-26.17-12.65-36.61-12.57-2.83-2.23-7.16-4.67-12.4-3.8-8.81,1.47-10.23,9.38-6.3,14.85-5,9-8.72,21.27-10.07,26.85-3,12.52-4.21,41.36-2.82,48.2C823.72,589.62,836.37,587.12,844.4,592.33Z"/><path class="cls-4" d="M817,610.58c1.88,4.9,10,5.48,14.94,4.36C847.08,637.79,884,657.52,908.46,668c14.26,6.12,51.35,14.22,67.38,11,3.29,6.6,10.67,10.25,14.6,7.66,5.36-3.53,3.53-8.92,2.57-14.1,4.89-3.84,11.06-6.46,15-32.5,1.42-9.34,1.05-35.82-6.29-43,2.19-2.93,6.07-11.66,2.79-15.18-4.14-4.44-12.58-4-17.29-3.84-4.15-8.17-11.86-14.32-20.1-19.84,6.05,9,9.71,15.12,11.1,26.71,9.78-.23,13.71.29,15.29,4.86,1.42,4.14-3.48,7.29-14,9.47,1.23,8.42,3.37,16.35,2.7,25-.62,7.92-4.49,25.78-17.78,31.82-19.72,9-45.51,1.93-59.75-6.12-13.42-7.59-27-14.26-39.06-23.85-6-4.75-20.88-19.63-21.23-33.81-8-5.21-20.8-11.56-25.44-22.06-1.33,8.68,0,19.48,2,27.45C819.6,602,814.78,604.82,817,610.58Z"/><path class="cls-26" d="M917.46,555.9c-5.53,23.27-41.37,9.1-53.71,2.53-12-6.37-34.83-31.89-18.27-43,9.29-6.2,22.95.18,32.29,4.15C882.6,521.68,921,541.09,917.46,555.9Z"/><path class="cls-27" d="M815.25,810.48s-22,14.57-44.65-7.15-31.71-27.68-46.6-29.55-19.41.05-22.65-21.62-4-59.72,20.33-80.81,52-30.81,52-30.81S828.85,759.09,815.25,810.48Z"/><path class="cls-28" d="M728.59,731.92c-.17-19.3,8.63-35.15,15.22-52.65a101.4,101.4,0,0,0,6-27.5,168.8,168.8,0,0,1,23.85-11.23s55.18,118.55,41.58,169.94c0,0-22,14.57-44.65-7.15-16.91-16.21-26.25-23.64-36.09-27.15C732.11,761.57,728.72,747,728.59,731.92Z"/><path class="cls-29" d="M746.11,711a70.25,70.25,0,0,0,18,16.81A38.13,38.13,0,0,1,781,756.42a159.28,159.28,0,0,0,10.29,41.65,75.37,75.37,0,0,0,15,24.51c10,10.56,27.29,25.9,41.19,35,17.44-21.29-6-73.33,6.76-97.07,16.68-31.08,13.48-33.31,22.24-52.26,3.31-7.15,31.86-17.06,38-20.75,15.59-9.4,29.44-24.17,35.13-40,3.44-9.54-3.36-34,.24-46.52,7.12-24.71,9.61-30.92,4.27-46-16.32-45.95-74.87-49.13-91.06-50-14-.73-33.31,15.79-41.28,28.59-15.77,25.33-28.91,38-55.89,42.62-25.68,4.42-38.39,26.5-40.61,40C721.89,636.84,732.75,693.5,746.11,711Z"/><path class="cls-30" d="M752,643.15c3-2,5.54,19.33,1.69,44.56-3.09,20.22,8.45,31.87,28.85,37.95s29.73-1.47,29.73-1.47l9.43-40.57Z"/><path class="cls-30" d="M914.18,531.68c12.08,15.23,20.22,21.43,14.83,33.94-16.45,38.16-12.08,74.31-28.59,85.43-22.39,15.08-104.85,16.7-121.81-8.68-5.9-8.83-29.42-9.6-33-26s10.63-25,33.17-24.66c9.13.14,18.83-13,20.22-15.37,9.71-16.18,25.42-11,35.38-27.17s8.7-27.58,30.48-33.25C885.59,510.49,907.5,523.26,914.18,531.68Z"/><path class="cls-31" d="M750.49,608.76c13.74-2.34,40.58,3.41,55.86,10.38,3.45-9.91,12.61-3.71,12.61-3.71l35.28,17.27s-8.61,18.1-22.21,27.5c-5.55,3.84-13.91,4.62-21.86,4.22-.44,5.34-3,11-9.85,15.84-12.48,8.73-24.55-5.36-44.78-21.44-15.53-12.34-18.34-22-18.2-30.64C737.46,620.67,738.73,610.76,750.49,608.76Z"/><path class="cls-7" d="M817.15,655.46c3.79-18.2,21.91-31.58,21.91-31.58l50.41,26.67c2.3,18.27,7.48,44.93-16.16,60.11-10.15,6.52-31.25,9.1-42.57,6.52-4.4-1-9-2.28-13.59-3.77Z"/><path class="cls-31" d="M906.37,585.79c-11.06,16.3-17.5,46.36-16.9,64.76C871.42,657.17,840,637.86,819,615.43a85.81,85.81,0,0,1,8.11-9c10.52,8.92,23.32,17.46,23.32,17.46l7.72-15.12-15-28.15c1.09-3,2.65-6,3.48-7.85l0,0c.13-.32.25-.6.34-.85-2.06-1.45-5.8-6.22-7.42-10.87a9.69,9.69,0,0,1-.44-6.28c7.11-20,14.11-21.88,25-33.28,13.5-14.1,38.82,10,38.82,10C924.78,550.66,917.43,569.5,906.37,585.79Z"/><path class="cls-32" d="M858.11,608.76l-7.72,15.12s-12.8-8.54-23.32-17.46c4-3.91,9.15-8,14.18-9.62-1.88-3.7-2.19-7.79,1.1-8.5-1-1.78-.37-4.72.73-7.69Z"/><path class="cls-33" d="M866.27,529.38c5.66-6.45,6.33-11.1,8.42-16.91,6.78.1,13.54.44,20.3.85.85,7.25,3.27,16.71,10,22-8.55,5.59-21,10.31-31.06,8.55C869,543,859.91,536.64,866.27,529.38Z"/><path class="cls-23" d="M799.94,635.92c-17.74-13-31.33-13-31.33-13s18.57,12.44,25.23,17,15.54,18.67,15.54,18.67l9.58-7.77S807.55,641.5,799.94,635.92Z"/><path class="cls-26" d="M773.4,667.4A20.1,20.1,0,0,0,756,655.11c-13.32-.91-16.89-1.66-31.72-2.24s-14.63,13.57,2.86,20.87a139.55,139.55,0,0,0,35.34,9.06Z"/><path class="cls-7" d="M799,665.07s-19.65-6.69-31.57-6.47S747.23,671.82,755,682s36.07,16.7,36.07,16.7Z"/><path class="cls-7" d="M858.11,608.76l-7.72,15.12s-2.24-1.5-5.62-3.89c-4.7-3.33-11.58-8.38-17.7-13.57-6.35-5.37-11.87-10.89-13.26-14.76-1.59-4.44.24-9.15,2.84-13.06a44.25,44.25,0,0,1,8.15-8.91L839.5,561c1.62,4.65,5.36,9.42,7.42,10.87-.09.25-.21.53-.34.85l0,0-4.21,6.49.73,1.36Z"/><path class="cls-23" d="M884.52,584.45s-10.43,3.72-16.68,0-13.47-8.16-13.47-8.16,5,9.39,13.86,14.46S884.52,584.45,884.52,584.45Z"/><path class="cls-31" d="M858.11,608.76l-7.72,15.12s-2.24-1.5-5.62-3.89c-6.33-11.71-14.62-27.4-17-33.62-2-5-6.68-7-11.07-7.77a44.25,44.25,0,0,1,8.15-8.91L839.5,561c1.62,4.65,5.36,9.42,7.42,10.87-.09.25-.21.53-.34.85l0,0-4.21,6.49.73,1.36Z"/><path class="cls-7" d="M917,550.35s-12.21,2.11-21.78,33.49-16.57,31.59-16.57,31.59l-34.36-37.81L831.44,588.3l28.88,54.25s20.93,17.68,41.53-9S945.31,555.2,917,550.35Z"/><path class="cls-34" d="M844.32,577.62l1.53-17.39-3.5-6.44-3.29.94v5.5l-11.34-9.88v-6.14l-4.82,8.47a13.65,13.65,0,0,0-.16,13.2l11,20.49Z"/><polygon class="cls-35" points="827.72 550.35 827.72 533 839.67 542.96 839.06 560.23 827.72 550.35"/><polygon class="cls-36" points="827.72 533 829.13 532.04 841.25 541.92 839.67 542.96 827.72 533"/><polygon class="cls-36" points="839.06 560.23 840.8 558.94 841.25 541.92 839.67 542.96 839.06 560.23"/><path class="cls-29" d="M784.9,752.79c1.88-18.81-11.65-51.19-3.13-75.73,11.26-32.47,33.5-26.17,66-23,1.58.16,3.11.27,4.64.38,21.67-.88,24.12-12.43,29.08-27.05s23.74-96.61,52.68-91.5c21.64,34.69,10.32,102.26,3.84,124.31S913,710.65,884.63,724.51s-16.68,37.91-51.19,57.9S791.19,788,791.19,788,783,771.6,784.9,752.79Z"/><path class="cls-30" d="M854.82,840c-4.33-10.11-9.19-20-12.67-30.53-3-8.95-5-18.38-4.25-27.88,1-12.45,7.4-23.6,9.41-35.86,3.6-21.92-4.73-41,18-54.79,10.87-6.6,24.25-9.56,33.75-18.33C928,645.9,913.19,572,955.62,561.77c3.32,12,.68,19.36-5.69,41.44-3.6,12.5,3.2,37-.24,46.52-5.69,15.8-19.53,30.57-35.13,40-6.11,3.68-34.66,13.6-38,20.74-8.77,18.95-1,16.37-21.27,53.71C849.46,775,858.38,813.22,854.82,840Z"/><path class="cls-22" d="M1040.35,630.11A55.77,55.77,0,0,0,1029,617.32a21.05,21.05,0,0,0-14-4.65l-.21.25a8.9,8.9,0,0,0-6.68,1.26L880.55,687.82c-7,4-12.71,15-12.71,24.29V815.27a15.21,15.21,0,0,0,1.43,6.81l0,.06a21.05,21.05,0,0,0,9.62,11.28c12.35,7.14,18.13,5.5,18.13,5.5l1.48-24.38h0l109.63-63.29c7-4,12.71-15,12.71-24.3V646.07Z"/><path class="cls-3" d="M901.18,837.41l127.54-73.64c7-4,12.72-15,12.72-24.29V636.32c0-9.33-5.72-13.66-12.72-9.62L901.18,700.34c-7,4-12.71,15-12.71,24.3V827.8C888.47,837.12,894.19,841.45,901.18,837.41Z"/><path class="cls-37" d="M880.84,456.83s-13.51-.22-18,10.27S848.4,492,856.32,508.56s7.66,19.33.51,24.44-12.07,7.9-9.23,22.21c0,0,5.4-13.87,13.83-8.59s20.42-5.45,18.38-27.92,9.7-46.47,9.7-46.47Z"/><path class="cls-34" d="M868,518.53c2.94,5.06,4.81,6.52,9,7.08,7,.92,17.3-3.3,22.16-7.18,18.29-14.58,18.12-57.87-10-57.86-11.51,0-22,5.63-24.28,15.74C862.78,485.62,861.25,506.89,868,518.53Z"/><path class="cls-3" d="M868,477s2.77,16,16.53,21.45,12.86,24.43,4,37.23-13.49,26.39-7.63,38.83.67,21.3.67,21.3,13.62-5.79,10.09-27.07,13.11-28.57,21-26.11c0,0-4.41-15.54,2.4-25.61s11.59-38.37,2.73-49.92-29.33-13.59-39-9.5S868,477,868,477Z"/><path class="cls-2" d="M896.37,677.87l23.25,10.59a6.7,6.7,0,0,1,3.34,5.8V794.39l90.06-52V642.26a6.71,6.71,0,0,0-3.35-5.8l-23.24-10.59Z"/><path class="cls-2" d="M924.94,815.27h0a2,2,0,0,0,2-2v-18.1a2,2,0,0,0-2-2h0a2,2,0,0,0-2,2v18.1A2,2,0,0,0,924.94,815.27Z"/><path class="cls-4" d="M921.72,793.21a3.22,3.22,0,1,0,3.22-3.22A3.22,3.22,0,0,0,921.72,793.21Z"/><path class="cls-2" d="M930.43,812.12h0a2,2,0,0,0,2-2V792.05a2,2,0,0,0-2-2h0a2,2,0,0,0-2,2v18.09A2,2,0,0,0,930.43,812.12Z"/><path class="cls-4" d="M927.21,790.06a3.22,3.22,0,1,0,3.22-3.21A3.22,3.22,0,0,0,927.21,790.06Z"/><path class="cls-2" d="M935.92,809h0a2,2,0,0,0,2-2V788.9a2,2,0,0,0-2-2h0a2,2,0,0,0-2,2V807A2,2,0,0,0,935.92,809Z"/><path class="cls-4" d="M932.7,786.92a3.22,3.22,0,1,0,3.22-3.22A3.22,3.22,0,0,0,932.7,786.92Z"/><path class="cls-2" d="M941.4,805.83h0a2,2,0,0,0,2-2v-18.1a2,2,0,0,0-2-2h0a2,2,0,0,0-2,2v18.1A2,2,0,0,0,941.4,805.83Z"/><path class="cls-4" d="M938.19,783.77a3.22,3.22,0,1,0,3.21-3.21A3.22,3.22,0,0,0,938.19,783.77Z"/><path class="cls-2" d="M946.89,802.69h0a2,2,0,0,0,2-2v-18.1a2,2,0,0,0-2-2h0a2,2,0,0,0-2,2v18.1A2,2,0,0,0,946.89,802.69Z"/><path class="cls-4" d="M943.67,780.63a3.22,3.22,0,1,0,3.22-3.22A3.22,3.22,0,0,0,943.67,780.63Z"/><path class="cls-2" d="M952.38,799.54h0a2,2,0,0,0,2-2v-18.1a2,2,0,0,0-2-2h0a2,2,0,0,0-2,2v18.1A2,2,0,0,0,952.38,799.54Z"/><path class="cls-4" d="M949.16,777.48a3.22,3.22,0,1,0,3.22-3.22A3.22,3.22,0,0,0,949.16,777.48Z"/><path class="cls-2" d="M957.87,796.39h0a2,2,0,0,0,2-2V776.32a2,2,0,0,0-2-2h0a2,2,0,0,0-2,2v18.09A2,2,0,0,0,957.87,796.39Z"/><circle class="cls-4" cx="957.87" cy="774.34" r="3.22"/><path class="cls-2" d="M963.35,793.25h0a2,2,0,0,0,2-2v-18.1a2,2,0,0,0-2-2h0a2,2,0,0,0-2,2v18.1A2,2,0,0,0,963.35,793.25Z"/><path class="cls-4" d="M960.14,771.19a3.22,3.22,0,1,0,3.21-3.22A3.22,3.22,0,0,0,960.14,771.19Z"/><path class="cls-2" d="M968.84,790.1h0a2,2,0,0,0,2-2V770a2,2,0,0,0-2-2h0a2,2,0,0,0-2,2v18.1A2,2,0,0,0,968.84,790.1Z"/><path class="cls-4" d="M965.62,768a3.22,3.22,0,1,0,3.22-3.21A3.22,3.22,0,0,0,965.62,768Z"/><path class="cls-2" d="M974.33,787h0a2,2,0,0,0,2-2v-18.1a2,2,0,0,0-2-2h0a2,2,0,0,0-2,2V785A2,2,0,0,0,974.33,787Z"/><path class="cls-4" d="M971.11,764.9a3.22,3.22,0,1,0,3.22-3.22A3.22,3.22,0,0,0,971.11,764.9Z"/><path class="cls-2" d="M979.81,783.81h0a2,2,0,0,0,2-2v-18.1a2,2,0,0,0-2-2h0a2,2,0,0,0-2,2v18.1A2,2,0,0,0,979.81,783.81Z"/><path class="cls-4" d="M976.6,761.75a3.22,3.22,0,1,0,3.21-3.22A3.22,3.22,0,0,0,976.6,761.75Z"/><path class="cls-2" d="M985.3,780.66h0a2,2,0,0,0,2-2V760.59a2,2,0,0,0-2-2h0a2,2,0,0,0-2,2v18.09A2,2,0,0,0,985.3,780.66Z"/><path class="cls-4" d="M982.08,758.61a3.22,3.22,0,1,0,3.22-3.22A3.22,3.22,0,0,0,982.08,758.61Z"/><path class="cls-2" d="M990.79,777.52h0a2,2,0,0,0,2-2v-18.1a2,2,0,0,0-2-2h0a2,2,0,0,0-2,2v18.1A2,2,0,0,0,990.79,777.52Z"/><path class="cls-4" d="M987.57,755.46a3.22,3.22,0,1,0,3.22-3.22A3.22,3.22,0,0,0,987.57,755.46Z"/><path class="cls-2" d="M996.28,774.37h0a2,2,0,0,0,2-2v-18.1a2,2,0,0,0-2-2h0a2,2,0,0,0-2,2v18.1A2,2,0,0,0,996.28,774.37Z"/><path class="cls-4" d="M993.06,752.31a3.22,3.22,0,1,0,3.22-3.21A3.22,3.22,0,0,0,993.06,752.31Z"/><path class="cls-2" d="M1001.76,771.23h0a2,2,0,0,0,2-2v-18.1a2,2,0,0,0-2-2h0a2,2,0,0,0-2,2v18.1A2,2,0,0,0,1001.76,771.23Z"/><path class="cls-4" d="M998.55,749.17a3.22,3.22,0,1,0,3.21-3.22A3.21,3.21,0,0,0,998.55,749.17Z"/><path class="cls-2" d="M1007.25,768.08h0a2,2,0,0,0,2-2V748a2,2,0,0,0-2-2h0a2,2,0,0,0-2,2v18.1A2,2,0,0,0,1007.25,768.08Z"/><path class="cls-4" d="M1004,746a3.22,3.22,0,1,0,3.22-3.22A3.22,3.22,0,0,0,1004,746Z"/><path class="cls-2" d="M1012.74,764.94h0a2,2,0,0,0,2-2V744.86a2,2,0,0,0-2-2h0a2,2,0,0,0-2,2V763A2,2,0,0,0,1012.74,764.94Z"/><path class="cls-4" d="M1009.52,742.88a3.22,3.22,0,1,0,3.22-3.22A3.22,3.22,0,0,0,1009.52,742.88Z"/><path class="cls-3" d="M723.22,251.32c0,28.88-20.41,64.08-45.58,78.62s-45.58,2.9-45.58-26,20.41-64.09,45.58-78.62S723.22,222.43,723.22,251.32Z"/><path class="cls-2" d="M727.09,251.32c0,28.88-20.41,64.08-45.58,78.62s-45.59,2.9-45.59-26,20.41-64.09,45.59-78.62S727.09,222.43,727.09,251.32Z"/><path class="cls-38" d="M712.6,259.68c0,19.71-13.92,43.72-31.09,53.63s-31.09,2-31.09-17.73,13.92-43.71,31.09-53.62S712.6,240,712.6,259.68Z"/><path class="cls-17" d="M710.54,259.68c0,19.71-13.92,43.72-31.09,53.63s-31.09,2-31.09-17.73,13.92-43.71,31.09-53.62S710.54,240,710.54,259.68Z"/><path class="cls-3" d="M723.22,132.3c0,28.88-20.41,64.08-45.58,78.62s-45.58,2.9-45.58-26,20.41-64.09,45.58-78.62S723.22,103.41,723.22,132.3Z"/><path class="cls-2" d="M727.09,132.3c0,28.88-20.41,64.08-45.58,78.62s-45.59,2.9-45.59-26,20.41-64.09,45.59-78.62S727.09,103.41,727.09,132.3Z"/><path class="cls-38" d="M712.6,140.66c0,19.71-13.92,43.72-31.09,53.63s-31.09,2-31.09-17.73,13.92-43.71,31.09-53.62S712.6,121,712.6,140.66Z"/><path class="cls-17" d="M710.54,140.66c0,19.71-13.92,43.72-31.09,53.63s-31.09,2-31.09-17.73,13.92-43.71,31.09-53.62S710.54,121,710.54,140.66Z"/><path class="cls-20" d="M1052.76,916.2h0a8.44,8.44,0,0,1-8.41-8.41V766.24a8.43,8.43,0,0,1,8.41-8.4h0a8.43,8.43,0,0,1,8.41,8.4V907.79A8.43,8.43,0,0,1,1052.76,916.2Z"/><path class="cls-20" d="M998.47,802.18l-48,151a8.45,8.45,0,1,0,16.11,5.12l49.6-156.08Z"/><path class="cls-20" d="M1108.42,802.18l47.94,151a8.46,8.46,0,0,1-16.12,5.11l-49.56-156.09Z"/><path class="cls-20" d="M1120.72,841.89a51.2,51.2,0,0,1,2.53,17.34c-.46,8.83-7.44,17.12-20.41,23.32-13.48,6.44-31.31,9.75-50.28,9.34-38.56-.86-69.82-19.08-69.4-37.95.06-2.54,3.19-13.59,3.19-13.59A21.12,21.12,0,0,0,978.68,856c-.49,21.84,31.92,39.67,73.77,40.6,1.11,0,2.21,0,3.31,0,18.44,0,35.78-3.46,49.12-9.84,14.65-7,22.85-16.76,23.08-27.47C1128.1,853.2,1125.56,847.28,1120.72,841.89Z"/><path class="cls-5" d="M1135.56,789c-9.79-19.72-44.49-34.88-86.23-35.81s-77.08,12.67-87.75,31.93l-3.12-.07-.26,11.72c-.56,25.18,39.33,46.49,89.09,47.6s90.57-18.4,91.13-43.58l.26-11.72Z"/><ellipse class="cls-7" cx="1048.54" cy="788.5" rx="45.61" ry="90.13" transform="translate(236.86 1819.2) rotate(-88.72)"/><path class="cls-11" d="M997,754.57s-7.27-10.58-14.92-1.82S979,773,984.25,776.81s12.76.71,12.76.71l-3.46-4.95s-1.49,4.85-7.55,0-3.67-14.9.16-18c5-4.06,8.79,11.15,10.85,8.09S997,754.57,997,754.57Z"/><path class="cls-11" d="M1015,773.91c-11.84,0-21.44,4.85-21.44,10.84s9.6,10.85,21.44,10.85,21.43-4.86,21.43-10.85S1026.83,773.91,1015,773.91Z"/><rect class="cls-11" x="993.55" y="743.24" width="42.87" height="41.52"/><path class="cls-8" d="M1015,732.39c-11.84,0-21.44,4.86-21.44,10.85s9.6,10.84,21.44,10.84,21.43-4.85,21.43-10.84S1026.83,732.39,1015,732.39Z"/><path class="cls-11" d="M1015,740.42c7.67,0,14.17,2.38,16.75,5.71A5.16,5.16,0,0,0,1033,743c0-4.89-8-8.85-18-8.85s-18,4-18,8.85a5.14,5.14,0,0,0,1.22,3.14C1000.81,742.8,1007.31,740.42,1015,740.42Z"/><path class="cls-39" d="M1015,751.84c7.67,0,14.17-2.37,16.75-5.71-2.58-3.33-9.08-5.71-16.75-5.71s-14.18,2.38-16.76,5.71C1000.81,749.47,1007.31,751.84,1015,751.84Z"/><polygon class="cls-5" points="1044.25 744.04 1075.78 725.84 1107.32 744.04 1075.78 762.25 1044.25 744.04"/><polygon class="cls-3" points="1052.13 748.6 1075.78 734.94 1099.44 748.6 1075.78 762.25 1052.13 748.6"/><polygon class="cls-5" points="1044.25 744.04 1075.78 762.25 1075.78 798.67 1044.25 780.46 1044.25 744.04"/><polygon class="cls-40" points="1075.78 798.67 1075.78 762.25 1107.32 744.04 1107.32 780.46 1075.78 798.67"/><polygon class="cls-41" points="1044.25 744.04 1075.78 725.84 1107.32 744.04 1075.78 762.25 1044.25 744.04"/><polygon class="cls-3" points="1074.21 751.86 1076.67 751.86 1075.78 717.81 1075.44 717.99 1075.02 717.82 1074.21 751.86"/><path class="cls-8" d="M1075.44,718s4.65-25.4,17.57-19.45S1075.44,718,1075.44,718Z"/><path class="cls-8" d="M1075.44,718s-26.56-8.9-17.64-16.89S1075.44,718,1075.44,718Z"/><polygon class="cls-3" points="1084.54 748.73 1086.22 748.73 1085.61 725.5 1085.38 725.61 1085.09 725.5 1084.54 748.73"/><path class="cls-7" d="M1085.38,725.61s3.17-17.33,12-13.27S1085.38,725.61,1085.38,725.61Z"/><path class="cls-7" d="M1085.38,725.61s-18.12-6.07-12-11.53S1085.38,725.61,1085.38,725.61Z"/><polygon class="cls-3" points="1066.26 751.86 1067.94 751.86 1067.34 728.63 1067.1 728.74 1066.81 728.63 1066.26 751.86"/><path class="cls-8" d="M1067.1,728.74s3.18-17.33,12-13.28S1067.1,728.74,1067.1,728.74Z"/><path class="cls-8" d="M1067.1,728.74s-18.12-6.07-12-11.53S1067.1,728.74,1067.1,728.74Z"/><polygon class="cls-3" points="1075.42 758.15 1076.97 758.15 1076.41 736.7 1076.19 736.81 1075.93 736.71 1075.42 758.15"/><path class="cls-8" d="M1076.19,736.81s2.94-16,11.07-12.25S1076.19,736.81,1076.19,736.81Z"/><path class="cls-8" d="M1076.19,736.81s-16.72-5.61-11.11-10.64S1076.19,736.81,1076.19,736.81Z"/><polygon class="cls-3" points="1062.23 750.95 1064.7 750.95 1063.81 716.9 1063.46 717.07 1063.04 716.91 1062.23 750.95"/><path class="cls-7" d="M1063.46,717.07s4.66-25.4,17.57-19.46S1063.46,717.07,1063.46,717.07Z"/><path class="cls-7" d="M1063.46,717.07s-26.55-8.9-17.63-16.89S1063.46,717.07,1063.46,717.07Z"/><polygon class="cls-3" points="1090.85 750.44 1092.96 750.44 1092.2 721.28 1091.91 721.43 1091.55 721.29 1090.85 750.44"/><path class="cls-8" d="M1091.91,721.43s4-21.75,15-16.66S1091.91,721.43,1091.91,721.43Z"/><path class="cls-8" d="M1091.91,721.43s-22.74-7.62-15.11-14.47S1091.91,721.43,1091.91,721.43Z"/><polygon class="cls-3" points="1083.03 755.14 1084.71 755.14 1084.11 731.91 1083.87 732.02 1083.58 731.91 1083.03 755.14"/><path class="cls-7" d="M1083.87,732s3.18-17.33,12-13.27S1083.87,732,1083.87,732Z"/><path class="cls-7" d="M1083.87,732s-18.12-6.07-12-11.53S1083.87,732,1083.87,732Z"/><polygon class="cls-3" points="1065.27 753.74 1067.04 753.74 1066.4 742.53 1066.15 742.65 1065.85 742.54 1065.27 753.74"/><path class="cls-7" d="M1066.15,742.65s3.36-18.3,12.66-14S1066.15,742.65,1066.15,742.65Z"/><path class="cls-7" d="M1066.15,742.65s-19.13-6.41-12.7-12.17S1066.15,742.65,1066.15,742.65Z"/><polygon class="cls-3" points="1088.35 751.54 1090.12 751.54 1089.48 740.33 1089.24 740.46 1088.93 740.34 1088.35 751.54"/><path class="cls-8" d="M1089.24,740.46s3.35-18.31,12.65-14S1089.24,740.46,1089.24,740.46Z"/><path class="cls-8" d="M1089.24,740.46s-19.14-6.42-12.71-12.18S1089.24,740.46,1089.24,740.46Z"/><polygon class="cls-3" points="1072.28 756.28 1074.06 756.28 1073.42 745.07 1073.17 745.2 1072.86 745.08 1072.28 756.28"/><path class="cls-8" d="M1073.17,745.2s3.35-18.31,12.66-14S1073.17,745.2,1073.17,745.2Z"/><path class="cls-8" d="M1073.17,745.2S1054,738.78,1060.46,733,1073.17,745.2,1073.17,745.2Z"/></g></svg>